<svg width="126" height="217" viewBox="0 0 126 217" fill="none" xmlns="http://www.w3.org/2000/svg">
<path d="M55.3848 174.117L63.7763 182.524" stroke="#23AFBE" stroke-width="1.6547" stroke-miterlimit="10" stroke-linecap="round" stroke-linejoin="round"/>
<path d="M26.5835 145.262L42.0074 160.714" stroke="#23AFBE" stroke-width="1.6547" stroke-miterlimit="10" stroke-linecap="round" stroke-linejoin="round"/>
<path d="M52.7188 147.128L110.798 205.314" stroke="#23AFBE" stroke-width="1.6547" stroke-miterlimit="10" stroke-linecap="round" stroke-linejoin="round"/>
<path d="M23.1055 117.458L34.8817 129.258" stroke="#23AFBE" stroke-width="1.6547" stroke-miterlimit="10" stroke-linecap="round" stroke-linejoin="round"/>
<path d="M94.46 164.63L145.563 215.828" stroke="#FEC748" stroke-width="1.6547" stroke-miterlimit="10" stroke-linecap="round" stroke-linejoin="round"/>
<path d="M17.3545 87.3809L71.8424 141.97" stroke="#FEC748" stroke-width="1.6547" stroke-miterlimit="10" stroke-linecap="round" stroke-linejoin="round"/>
<path d="M60.0747 105.861L150.274 196.229" stroke="#23AFBE" stroke-width="1.6547" stroke-miterlimit="10" stroke-linecap="round" stroke-linejoin="round"/>
<path d="M22.7773 68.4946L41.8702 87.623" stroke="#23AFBE" stroke-width="1.6547" stroke-miterlimit="10" stroke-linecap="round" stroke-linejoin="round"/>
<path d="M1.16992 22.5308L111.745 133.311" stroke="#23AFBE" stroke-width="1.6547" stroke-miterlimit="10" stroke-linecap="round" stroke-linejoin="round"/>
<path d="M89.8633 87.0703L197.884 195.293" stroke="#FEC748" stroke-width="1.6547" stroke-miterlimit="10" stroke-linecap="round" stroke-linejoin="round"/>
<path d="M42.1519 39.27L67.2459 64.4108" stroke="#FEC748" stroke-width="1.6547" stroke-miterlimit="10" stroke-linecap="round" stroke-linejoin="round"/>
<path d="M110.826 83.7544L180.609 153.667" stroke="#23AFBE" stroke-width="1.6547" stroke-miterlimit="10" stroke-linecap="round" stroke-linejoin="round"/>
<path d="M39.5859 12.3833L91.1503 64.0423" stroke="#23AFBE" stroke-width="1.6547" stroke-miterlimit="10" stroke-linecap="round" stroke-linejoin="round"/>
<path d="M71.0957 19.6328L141.903 90.5704" stroke="#FEC748" stroke-width="1.6547" stroke-miterlimit="10" stroke-linecap="round" stroke-linejoin="round"/>
<path d="M76.9429 1.17188L113.768 38.0669" stroke="#23AFBE" stroke-width="1.6547" stroke-miterlimit="10" stroke-linecap="round" stroke-linejoin="round"/>
<path d="M106.405 6.37256L154.958 55.0161" stroke="#FEC748" stroke-width="1.6547" stroke-miterlimit="10" stroke-linecap="round" stroke-linejoin="round"/>
</svg>
