<svg width="216" height="150" viewBox="0 0 216 150" fill="none" xmlns="http://www.w3.org/2000/svg">
<path d="M-4.87059 149.401C-5.24436 149.401 -5.59793 149.178 -5.7479 148.809C-11.5106 134.621 -9.50034 116.901 -0.625489 103.666C8.36826 90.253 23.2825 82.8663 41.3694 82.8663C51.8909 82.8663 60.0788 84.7311 66.2603 87.637C67.8487 85.2345 69.9988 83.0704 72.7776 81.3101C81.64 75.6969 89.9088 78.0542 98.6632 80.5526C108.38 83.3237 118.426 86.1883 131.327 79.5816C147.718 71.1873 148.137 54.1375 148.543 37.6489C148.858 24.8314 149.155 12.7246 156.995 5.56696C172.226 -8.33684 213.661 8.75809 215.417 9.49295C215.9 9.69478 216.128 10.2504 215.927 10.7351C215.726 11.219 215.171 11.4474 214.688 11.2463C214.269 11.071 172.613 -6.12448 158.269 6.972C151.028 13.5826 150.74 25.2958 150.436 37.6964C150.036 53.9458 149.583 72.364 132.188 81.2726C118.624 88.2206 107.744 85.1168 98.1449 82.3792C89.4464 79.898 81.9345 77.755 73.7878 82.9161C71.2623 84.5152 69.3538 86.4174 67.9497 88.4833C76.6217 93.1028 80.8901 99.8685 81.8498 106.037C82.752 111.84 80.5428 116.802 76.4772 118.106C72.2873 119.449 67.7748 116.441 64.9844 110.442C62.0199 104.067 61.6974 95.9495 65.2851 89.2688C59.3701 86.5281 51.507 84.7654 41.3686 84.7654C23.9321 84.7654 9.57582 91.8544 0.944959 104.726C-7.58799 117.451 -9.52676 134.474 -3.99562 148.094C-3.79824 148.579 -4.03136 149.133 -4.51547 149.331C-4.63126 149.379 -4.7517 149.401 -4.87059 149.401ZM66.969 90.1018C63.3681 96.7864 64.4125 104.716 66.7025 109.639C69.0648 114.718 72.6797 117.332 75.9022 116.297C79.0586 115.286 80.7355 111.187 79.9802 106.329C79.0951 100.637 75.101 94.3979 66.969 90.1018Z" fill="#FFC36B"/>
</svg>
