<svg width="388" height="340" viewBox="0 0 388 340" fill="none" xmlns="http://www.w3.org/2000/svg">
<path d="M0.861776 0.300985H387.352V338.73H0.861776V0.300985Z" fill="white" stroke="#F1F1F1" stroke-width="0.602457"/>
<path d="M119.917 52.6931C119.917 50.8935 120.319 49.2862 121.123 47.871C121.944 46.4384 123.053 45.3289 124.451 44.5427C125.866 43.739 127.447 43.3372 129.194 43.3372C131.239 43.3372 133.029 43.8613 134.567 44.9096C136.104 45.9579 137.179 47.408 137.79 49.26H133.571C133.152 48.3864 132.558 47.7312 131.789 47.2944C131.038 46.8577 130.164 46.6393 129.168 46.6393C128.103 46.6393 127.15 46.8926 126.312 47.3993C125.491 47.8885 124.844 48.5873 124.372 49.4958C123.918 50.4043 123.691 51.4701 123.691 52.6931C123.691 53.8986 123.918 54.9643 124.372 55.8903C124.844 56.7988 125.491 57.5064 126.312 58.0131C127.15 58.5023 128.103 58.7469 129.168 58.7469C130.164 58.7469 131.038 58.5285 131.789 58.0917C132.558 57.6374 133.152 56.9735 133.571 56.1H137.79C137.179 57.9694 136.104 59.4282 134.567 60.4765C133.047 61.5073 131.256 62.0227 129.194 62.0227C127.447 62.0227 125.866 61.6296 124.451 60.8434C123.053 60.0397 121.944 58.9303 121.123 57.5151C120.319 56.1 119.917 54.4926 119.917 52.6931ZM144.331 49.6007C144.803 48.8319 145.414 48.2292 146.165 47.7924C146.934 47.3556 147.808 47.1372 148.786 47.1372V50.9896H147.817C146.663 50.9896 145.79 51.2604 145.196 51.802C144.619 52.3436 144.331 53.2871 144.331 54.6324V61.8655H140.662V47.3469H144.331V49.6007ZM164.492 54.2917C164.492 54.8158 164.457 55.2875 164.387 55.7069H153.773C153.861 56.7551 154.228 57.5763 154.874 58.1703C155.52 58.7643 156.315 59.0613 157.259 59.0613C158.622 59.0613 159.591 58.4761 160.168 57.3055H164.125C163.706 58.7032 162.902 59.8563 161.714 60.7648C160.526 61.6558 159.067 62.1013 157.337 62.1013C155.94 62.1013 154.682 61.7956 153.564 61.1841C152.463 60.5551 151.598 59.6728 150.969 58.5372C150.358 57.4016 150.052 56.0912 150.052 54.6062C150.052 53.1036 150.358 51.7846 150.969 50.6489C151.581 49.5133 152.437 48.6397 153.537 48.0282C154.638 47.4167 155.905 47.111 157.337 47.111C158.718 47.111 159.949 47.408 161.033 48.002C162.133 48.5961 162.981 49.4434 163.575 50.5441C164.186 51.6273 164.492 52.8765 164.492 54.2917ZM160.692 53.2434C160.674 52.3 160.334 51.5487 159.67 50.9896C159.006 50.4131 158.194 50.1248 157.233 50.1248C156.324 50.1248 155.555 50.4043 154.926 50.9634C154.315 51.505 153.939 52.265 153.799 53.2434H160.692ZM165.964 54.5538C165.964 53.0862 166.253 51.7846 166.829 50.6489C167.423 49.5133 168.218 48.6397 169.214 48.0282C170.227 47.4167 171.354 47.111 172.595 47.111C173.678 47.111 174.621 47.3294 175.425 47.7662C176.246 48.2029 176.901 48.7533 177.391 49.4172V47.3469H181.086V61.8655H177.391V59.7427C176.919 60.4241 176.264 60.9919 175.425 61.4462C174.604 61.8829 173.652 62.1013 172.569 62.1013C171.346 62.1013 170.227 61.7869 169.214 61.1579C168.218 60.5289 167.423 59.6466 166.829 58.511C166.253 57.3579 165.964 56.0388 165.964 54.5538ZM177.391 54.6062C177.391 53.7151 177.216 52.9551 176.866 52.3262C176.517 51.6797 176.045 51.1905 175.451 50.8586C174.857 50.5092 174.22 50.3344 173.538 50.3344C172.857 50.3344 172.228 50.5004 171.651 50.8324C171.075 51.1643 170.603 51.6535 170.236 52.3C169.887 52.9289 169.712 53.6802 169.712 54.5538C169.712 55.4273 169.887 56.1961 170.236 56.86C170.603 57.5064 171.075 58.0043 171.651 58.3538C172.245 58.7032 172.874 58.8779 173.538 58.8779C174.22 58.8779 174.857 58.7119 175.451 58.38C176.045 58.0305 176.517 57.5413 176.866 56.9124C177.216 56.2659 177.391 55.4972 177.391 54.6062ZM188.679 50.3607V57.3841C188.679 57.8733 188.792 58.2315 189.02 58.4586C189.264 58.6682 189.666 58.7731 190.225 58.7731H191.928V61.8655H189.622C186.53 61.8655 184.984 60.3629 184.984 57.3579V50.3607H183.254V47.3469H184.984V43.7565H188.679V47.3469H191.928V50.3607H188.679ZM207.802 54.2917C207.802 54.8158 207.767 55.2875 207.697 55.7069H197.083C197.171 56.7551 197.537 57.5763 198.184 58.1703C198.83 58.7643 199.625 59.0613 200.569 59.0613C201.932 59.0613 202.901 58.4761 203.478 57.3055H207.435C207.016 58.7032 206.212 59.8563 205.024 60.7648C203.836 61.6558 202.377 62.1013 200.647 62.1013C199.25 62.1013 197.992 61.7956 196.874 61.1841C195.773 60.5551 194.908 59.6728 194.279 58.5372C193.668 57.4016 193.362 56.0912 193.362 54.6062C193.362 53.1036 193.668 51.7846 194.279 50.6489C194.891 49.5133 195.747 48.6397 196.847 48.0282C197.948 47.4167 199.215 47.111 200.647 47.111C202.028 47.111 203.259 47.408 204.343 48.002C205.443 48.5961 206.291 49.4434 206.885 50.5441C207.496 51.6273 207.802 52.8765 207.802 54.2917ZM204.002 53.2434C203.984 52.3 203.644 51.5487 202.98 50.9896C202.316 50.4131 201.503 50.1248 200.543 50.1248C199.634 50.1248 198.865 50.4043 198.236 50.9634C197.625 51.505 197.249 52.265 197.109 53.2434H204.002ZM229.54 49.2338C229.54 50.2121 229.304 51.1294 228.832 51.9855C228.378 52.8416 227.653 53.5317 226.657 54.0558C225.679 54.58 224.438 54.842 222.936 54.842H219.869V61.8655H216.2V43.5731H222.936C224.351 43.5731 225.556 43.8177 226.552 44.3069C227.548 44.7961 228.29 45.4687 228.78 46.3248C229.286 47.1809 229.54 48.1505 229.54 49.2338ZM222.778 51.8807C223.792 51.8807 224.543 51.6535 225.032 51.1993C225.521 50.7275 225.766 50.0724 225.766 49.2338C225.766 47.4517 224.77 46.5607 222.778 46.5607H219.869V51.8807H222.778ZM238.329 62.1013C236.932 62.1013 235.674 61.7956 234.556 61.1841C233.437 60.5551 232.555 59.6728 231.909 58.5372C231.28 57.4016 230.965 56.0912 230.965 54.6062C230.965 53.1211 231.288 51.8108 231.935 50.6751C232.599 49.5395 233.499 48.6659 234.634 48.0544C235.77 47.4255 237.037 47.111 238.434 47.111C239.832 47.111 241.099 47.4255 242.234 48.0544C243.37 48.6659 244.261 49.5395 244.907 50.6751C245.571 51.8108 245.903 53.1211 245.903 54.6062C245.903 56.0912 245.563 57.4016 244.881 58.5372C244.217 59.6728 243.309 60.5551 242.156 61.1841C241.02 61.7956 239.745 62.1013 238.329 62.1013ZM238.329 58.9041C238.993 58.9041 239.614 58.7469 240.19 58.4324C240.784 58.1004 241.256 57.6112 241.605 56.9648C241.955 56.3184 242.129 55.5321 242.129 54.6062C242.129 53.2259 241.763 52.1689 241.029 51.4351C240.312 50.6839 239.43 50.3082 238.382 50.3082C237.334 50.3082 236.451 50.6839 235.735 51.4351C235.036 52.1689 234.687 53.2259 234.687 54.6062C234.687 55.9864 235.027 57.0521 235.709 57.8034C236.408 58.5372 237.281 58.9041 238.329 58.9041ZM253.888 62.1013C252.7 62.1013 251.635 61.8917 250.691 61.4724C249.748 61.0356 248.996 60.4503 248.437 59.7165C247.896 58.9827 247.599 58.1703 247.546 57.2793H251.241C251.311 57.8384 251.582 58.3013 252.054 58.6682C252.543 59.0351 253.146 59.2186 253.862 59.2186C254.561 59.2186 255.103 59.0788 255.487 58.7993C255.889 58.5197 256.09 58.1616 256.09 57.7248C256.09 57.2531 255.845 56.9036 255.356 56.6765C254.884 56.4319 254.124 56.1698 253.076 55.8903C251.993 55.6282 251.102 55.3574 250.403 55.0779C249.721 54.7984 249.127 54.3703 248.621 53.7938C248.132 53.2172 247.887 52.4397 247.887 51.4613C247.887 50.6577 248.114 49.9239 248.568 49.26C249.04 48.5961 249.704 48.0719 250.56 47.6875C251.434 47.3032 252.456 47.111 253.626 47.111C255.356 47.111 256.736 47.5478 257.767 48.4213C258.798 49.2774 259.366 50.4393 259.47 51.9069H255.959C255.906 51.3303 255.662 50.8761 255.225 50.5441C254.806 50.1947 254.238 50.02 253.521 50.02C252.858 50.02 252.342 50.1423 251.975 50.3869C251.626 50.6315 251.451 50.9721 251.451 51.4089C251.451 51.8981 251.696 52.2738 252.185 52.5358C252.674 52.7804 253.434 53.0338 254.465 53.2958C255.513 53.5579 256.378 53.8287 257.059 54.1082C257.741 54.3878 258.326 54.8246 258.815 55.4186C259.322 55.9951 259.584 56.7639 259.601 57.7248C259.601 58.5634 259.366 59.3147 258.894 59.9786C258.44 60.6425 257.776 61.1666 256.902 61.551C256.046 61.9179 255.041 62.1013 253.888 62.1013ZM266.623 50.3607V57.3841C266.623 57.8733 266.736 58.2315 266.964 58.4586C267.208 58.6682 267.61 58.7731 268.169 58.7731H269.872V61.8655H267.566C264.474 61.8655 262.928 60.3629 262.928 57.3579V50.3607H261.198V47.3469H262.928V43.7565H266.623V47.3469H269.872V50.3607H266.623Z" fill="#222831"/>
<rect x="44.7256" y="115.608" width="300.062" height="12.9897" rx="6.49485" fill="#F1F1F1"/>
<rect x="59.0142" y="146.783" width="271.485" height="12.9897" rx="6.49485" fill="#F1F1F1"/>
<rect x="62.9111" y="177.959" width="263.691" height="12.9897" rx="6.49485" fill="#F1F1F1"/>
<rect x="59.0142" y="209.134" width="271.485" height="12.9897" rx="6.49485" fill="#F1F1F1"/>
<path d="M140.85 259.598C140.85 256.836 143.088 254.598 145.85 254.598H244.784C247.545 254.598 249.784 256.836 249.784 259.598V291.165C249.784 293.926 247.545 296.165 244.784 296.165H145.85C143.088 296.165 140.85 293.926 140.85 291.165V259.598Z" fill="#DB6400"/>
<path d="M178.321 278.14C177.822 278.14 177.374 278.054 176.976 277.88C176.586 277.699 176.279 277.454 176.055 277.143C175.831 276.825 175.715 276.46 175.708 276.047H176.76C176.796 276.402 176.94 276.702 177.193 276.947C177.454 277.186 177.83 277.305 178.321 277.305C178.791 277.305 179.16 277.19 179.427 276.958C179.702 276.72 179.839 276.416 179.839 276.047C179.839 275.758 179.76 275.523 179.601 275.343C179.442 275.162 179.243 275.024 179.004 274.93C178.766 274.836 178.444 274.735 178.039 274.627C177.54 274.497 177.139 274.367 176.835 274.236C176.539 274.106 176.282 273.904 176.066 273.629C175.856 273.347 175.751 272.971 175.751 272.501C175.751 272.089 175.856 271.724 176.066 271.406C176.275 271.088 176.568 270.842 176.944 270.669C177.327 270.495 177.764 270.408 178.256 270.408C178.965 270.408 179.543 270.586 179.991 270.94C180.447 271.294 180.703 271.764 180.761 272.35H179.677C179.641 272.06 179.489 271.807 179.221 271.59C178.954 271.366 178.599 271.254 178.158 271.254C177.746 271.254 177.41 271.363 177.15 271.58C176.89 271.789 176.76 272.086 176.76 272.469C176.76 272.744 176.835 272.968 176.987 273.141C177.146 273.315 177.338 273.448 177.562 273.542C177.793 273.629 178.115 273.73 178.527 273.846C179.026 273.983 179.427 274.121 179.731 274.258C180.035 274.388 180.295 274.594 180.512 274.876C180.729 275.151 180.837 275.527 180.837 276.004C180.837 276.373 180.739 276.72 180.544 277.045C180.349 277.37 180.06 277.634 179.677 277.837C179.294 278.039 178.842 278.14 178.321 278.14ZM182.799 271.157C182.611 271.157 182.452 271.092 182.322 270.961C182.192 270.831 182.127 270.672 182.127 270.484C182.127 270.296 182.192 270.137 182.322 270.007C182.452 269.877 182.611 269.812 182.799 269.812C182.98 269.812 183.131 269.877 183.254 270.007C183.384 270.137 183.45 270.296 183.45 270.484C183.45 270.672 183.384 270.831 183.254 270.961C183.131 271.092 182.98 271.157 182.799 271.157ZM183.276 272.122V278.064H182.289V272.122H183.276ZM187.409 272.024C187.922 272.024 188.37 272.136 188.753 272.36C189.144 272.585 189.433 272.866 189.621 273.206V272.122H190.619V278.195C190.619 278.737 190.503 279.218 190.272 279.637C190.04 280.063 189.708 280.396 189.274 280.635C188.847 280.873 188.349 280.992 187.777 280.992C186.997 280.992 186.346 280.808 185.825 280.439C185.305 280.071 184.998 279.568 184.904 278.932H185.88C185.988 279.293 186.212 279.583 186.552 279.8C186.892 280.024 187.3 280.136 187.777 280.136C188.32 280.136 188.761 279.966 189.1 279.626C189.447 279.286 189.621 278.809 189.621 278.195V276.947C189.426 277.295 189.137 277.584 188.753 277.815C188.37 278.046 187.922 278.162 187.409 278.162C186.881 278.162 186.4 278.032 185.966 277.772C185.54 277.511 185.204 277.146 184.958 276.676C184.712 276.206 184.589 275.671 184.589 275.071C184.589 274.464 184.712 273.933 184.958 273.477C185.204 273.015 185.54 272.657 185.966 272.404C186.4 272.151 186.881 272.024 187.409 272.024ZM189.621 275.082C189.621 274.634 189.531 274.244 189.35 273.911C189.169 273.579 188.923 273.326 188.612 273.152C188.309 272.971 187.973 272.881 187.604 272.881C187.235 272.881 186.899 272.968 186.595 273.141C186.292 273.315 186.05 273.568 185.869 273.9C185.688 274.233 185.598 274.623 185.598 275.071C185.598 275.527 185.688 275.925 185.869 276.264C186.05 276.597 186.292 276.854 186.595 277.034C186.899 277.208 187.235 277.295 187.604 277.295C187.973 277.295 188.309 277.208 188.612 277.034C188.923 276.854 189.169 276.597 189.35 276.264C189.531 275.925 189.621 275.531 189.621 275.082ZM195.182 272.013C195.905 272.013 196.49 272.234 196.938 272.675C197.387 273.109 197.611 273.738 197.611 274.562V278.064H196.635V274.703C196.635 274.11 196.487 273.658 196.19 273.347C195.894 273.029 195.489 272.87 194.976 272.87C194.455 272.87 194.039 273.033 193.729 273.358C193.425 273.683 193.273 274.157 193.273 274.779V278.064H192.286V272.122H193.273V272.968C193.468 272.664 193.732 272.429 194.065 272.263C194.404 272.097 194.777 272.013 195.182 272.013ZM207.384 272.122V278.064H206.397V277.186C206.209 277.49 205.945 277.728 205.606 277.902C205.273 278.068 204.904 278.151 204.5 278.151C204.037 278.151 203.621 278.057 203.252 277.869C202.884 277.674 202.591 277.385 202.374 277.002C202.164 276.619 202.06 276.152 202.06 275.603V272.122H203.036V275.473C203.036 276.058 203.184 276.51 203.48 276.828C203.777 277.139 204.181 277.295 204.695 277.295C205.222 277.295 205.638 277.132 205.942 276.807C206.245 276.481 206.397 276.008 206.397 275.386V272.122H207.384ZM210.037 273.217C210.232 272.877 210.522 272.595 210.905 272.371C211.295 272.14 211.747 272.024 212.26 272.024C212.788 272.024 213.265 272.151 213.692 272.404C214.125 272.657 214.465 273.015 214.711 273.477C214.957 273.933 215.08 274.464 215.08 275.071C215.08 275.671 214.957 276.206 214.711 276.676C214.465 277.146 214.125 277.511 213.692 277.772C213.265 278.032 212.788 278.162 212.26 278.162C211.754 278.162 211.306 278.05 210.916 277.826C210.532 277.595 210.24 277.309 210.037 276.969V280.884H209.05V272.122H210.037V273.217ZM214.071 275.071C214.071 274.623 213.981 274.233 213.8 273.9C213.619 273.568 213.374 273.315 213.063 273.141C212.759 272.968 212.423 272.881 212.054 272.881C211.693 272.881 211.357 272.971 211.046 273.152C210.742 273.326 210.496 273.582 210.308 273.922C210.128 274.255 210.037 274.641 210.037 275.082C210.037 275.531 210.128 275.925 210.308 276.264C210.496 276.597 210.742 276.854 211.046 277.034C211.357 277.208 211.693 277.295 212.054 277.295C212.423 277.295 212.759 277.208 213.063 277.034C213.374 276.854 213.619 276.597 213.8 276.264C213.981 275.925 214.071 275.527 214.071 275.071Z" fill="#FAFAFA"/>
</svg>
