<svg width="210" height="215" viewBox="0 0 210 215" fill="none" xmlns="http://www.w3.org/2000/svg">
<path d="M104.156 212.146C160.391 212.146 205.979 166.7 205.979 110.639C205.979 54.578 160.391 9.13159 104.156 9.13159C47.9199 9.13159 2.33203 54.578 2.33203 110.639C2.33203 166.7 47.9199 212.146 104.156 212.146Z" fill="#FBD947"/>
<path d="M102.736 9.20239C102.135 45.6958 91.2182 126.304 8.93253 146.606C4.56044 135.126 2.33343 122.949 2.361 110.674C2.34431 106.151 2.65129 101.632 3.2796 97.1519C6.04483 76.3819 15.2181 56.9747 29.5365 41.6014C43.8551 26.2286 62.6147 15.6457 83.2334 11.3098C89.6477 9.96531 96.1807 9.25936 102.736 9.20239Z" fill="#FBE481"/>
<path opacity="0.5" d="M204.174 109.446C204.212 136.315 193.521 162.1 174.449 181.139C155.377 200.178 129.484 210.913 102.457 210.988C90.0124 211.021 77.671 208.746 66.0659 204.279C151.107 173.054 170.716 99.6109 166.405 30.5579C178.218 40.0771 187.74 52.1013 194.274 65.7503C200.809 79.3997 204.192 94.329 204.174 109.446Z" fill="#F8A547"/>
<path d="M40.1352 91.5322H39.7466C39.6162 91.4816 39.4975 91.4061 39.3968 91.3098C39.2961 91.2136 39.2156 91.0987 39.1597 90.9712C39.1039 90.8441 39.0739 90.7071 39.0714 90.568C39.0693 90.4293 39.0944 90.2913 39.146 90.1623L44.9049 76.5695C45.014 76.3145 45.2197 76.1126 45.4776 76.0072C45.7355 75.9022 46.0249 75.9022 46.2828 76.0075C46.5333 76.1227 46.7308 76.3282 46.8357 76.5822C46.9403 76.8361 46.9449 77.1203 46.8481 77.3774L41.0892 90.9702C40.992 91.1374 40.8531 91.2768 40.686 91.3752C40.5189 91.4739 40.3292 91.5276 40.1352 91.5322Z" fill="#3E3126"/>
<path d="M47.8078 84.9641H47.4191C47.2891 84.9139 47.1704 84.8383 47.0697 84.7421C46.969 84.6459 46.8885 84.5307 46.8326 84.4035C46.7768 84.2764 46.7468 84.139 46.7443 84.0003C46.7418 83.8616 46.7673 83.7235 46.8185 83.5943L49.8923 76.3237C49.9424 76.1944 50.0188 76.0768 50.1163 75.9777C50.2138 75.8787 50.3307 75.8003 50.4597 75.7477C50.5886 75.6953 50.7271 75.6693 50.8663 75.6718C51.0059 75.6742 51.1433 75.7048 51.2702 75.7617C51.5267 75.8706 51.7298 76.075 51.8358 76.3314C51.9415 76.5878 51.9415 76.8755 51.8355 77.1315L48.797 84.1562C48.7338 84.3747 48.6052 84.5686 48.4285 84.713C48.2522 84.8573 48.0356 84.9448 47.8078 84.9641Z" fill="#3E3126"/>
<path d="M104.152 212.427C83.872 212.497 64.0281 206.582 47.1322 195.432C30.2365 184.282 17.049 168.398 9.23995 149.792C1.43084 131.186 -0.648675 110.695 3.26475 90.9132C7.17818 71.1316 16.9085 52.9491 31.2236 38.6689C45.5384 24.3886 63.7945 14.6526 83.6791 10.6938C103.564 6.73499 124.183 8.73152 142.926 16.4305C161.668 24.1295 177.691 37.1846 188.965 53.9428C200.239 70.7006 206.258 90.4081 206.258 110.569C206.258 137.522 195.511 163.377 176.373 182.47C157.235 201.562 131.264 212.334 104.152 212.427ZM104.152 16.9993C85.5018 16.9437 67.2548 22.3912 51.7213 32.652C36.1877 42.9129 24.0665 57.5254 16.8923 74.639C9.71811 91.753 7.81378 110.599 11.4205 128.789C15.0271 146.98 23.9825 163.697 37.1526 176.824C50.3229 189.952 67.1153 198.899 85.4036 202.532C103.692 206.165 122.654 204.322 139.887 197.234C157.121 190.148 171.851 178.136 182.214 162.72C192.576 147.305 198.103 129.179 198.096 110.639C198.096 85.8466 188.206 62.0662 170.596 44.5125C152.985 26.9587 129.09 17.0644 104.152 16.9993Z" fill="#F8A547"/>
<path d="M2.33155 112.676C2.06409 112.676 1.7993 112.624 1.55263 112.521C1.30597 112.418 1.08237 112.267 0.894898 112.078C0.707425 111.888 0.559831 111.663 0.460728 111.416C0.361625 111.169 0.313 110.905 0.317693 110.639C0.318256 103.645 1.01651 96.668 2.40221 89.8108C2.45268 89.5487 2.55534 89.2994 2.70416 89.0774C2.85297 88.8554 3.04493 88.665 3.26876 88.5179C3.49259 88.3707 3.74375 88.2692 4.00753 88.22C4.27131 88.1705 4.54233 88.174 4.8047 88.2302C5.0683 88.2804 5.31919 88.3826 5.54255 88.5305C5.76591 88.6784 5.9573 88.8691 6.1054 89.0918C6.25355 89.3141 6.35544 89.5639 6.40508 89.8262C6.45476 90.0886 6.45119 90.358 6.39459 90.6186C5.04986 97.2082 4.37518 103.915 4.38073 110.639C4.38073 110.907 4.32773 111.172 4.22475 111.419C4.12176 111.666 3.97082 111.891 3.78053 112.08C3.59027 112.269 3.36436 112.419 3.11574 112.521C2.86712 112.624 2.60065 112.676 2.33155 112.676Z" fill="#3E3126"/>
<path d="M104.156 214.114C79.588 214.172 55.7987 205.552 37.032 189.79C18.2652 174.029 5.74178 152.151 1.69612 128.061C1.6668 127.793 1.69118 127.522 1.76787 127.264C1.84455 127.005 1.97201 126.765 2.14286 126.556C2.31372 126.347 2.52459 126.174 2.76326 126.046C3.00193 125.919 3.26366 125.839 3.53332 125.813C3.79611 125.763 4.06643 125.766 4.32791 125.823C4.58936 125.879 4.83657 125.988 5.05456 126.142C5.27255 126.297 5.45677 126.493 5.59611 126.721C5.73542 126.948 5.82696 127.201 5.86516 127.464C9.97583 151.058 22.5133 172.386 41.1738 187.528C59.8341 202.669 83.3645 210.607 107.441 209.884C131.517 209.161 154.522 199.824 172.229 183.59C189.935 167.356 201.155 145.315 203.825 121.517C206.494 97.7183 200.436 73.7616 186.763 54.0478C173.089 34.3344 152.719 20.1884 129.394 14.2093C106.07 8.23009 81.3587 10.8194 59.8009 21.5014C38.2431 32.1834 21.287 50.2407 12.048 72.3549C11.8169 72.8154 11.4189 73.1719 10.9342 73.3528C10.4495 73.5336 9.91393 73.5252 9.43512 73.3296C8.95632 73.1336 8.56977 72.7651 8.35319 72.2976C8.13661 71.8301 8.10605 71.2984 8.26765 70.8095C15.5404 53.5732 27.3796 38.6204 42.5245 27.5442C57.6694 16.4679 75.5528 9.68287 94.2697 7.91159C112.987 6.14034 131.837 9.44923 148.812 17.4859C165.787 25.5225 180.251 37.9857 190.665 53.5487C201.078 69.1112 207.05 87.1908 207.945 105.861C208.84 124.531 204.625 143.093 195.748 159.57C186.87 176.046 173.664 189.821 157.534 199.426C141.405 209.031 122.957 214.107 104.156 214.114Z" fill="#3E3126"/>
<path d="M2.11985 121.177C3.29061 121.177 4.2397 120.233 4.2397 119.069C4.2397 117.905 3.29061 116.962 2.11985 116.962C0.949088 116.962 0 117.905 0 119.069C0 120.233 0.949088 121.177 2.11985 121.177Z" fill="#3E3126"/>
<path d="M104.162 192.829C87.7999 192.878 71.7915 188.099 58.1633 179.097C44.5352 170.096 33.9 157.277 27.6047 142.263C21.3093 127.249 19.6368 110.716 22.7988 94.7568C25.9608 78.7973 33.8152 64.1297 45.3676 52.6109C56.9197 41.0918 71.6505 33.2395 87.6943 30.0483C103.738 26.857 120.374 28.4702 135.495 34.6837C150.616 40.8972 163.543 51.4311 172.638 64.9526C181.733 78.4738 186.588 94.3739 186.588 110.64C186.589 132.395 177.912 153.263 162.461 168.669C147.01 184.076 126.046 192.764 104.162 192.829ZM104.162 36.5991C89.4096 36.5366 74.9709 40.8287 62.6747 48.9317C50.3786 57.0347 40.7788 68.5837 35.0913 82.1158C29.4038 95.6479 27.8848 110.554 30.7268 124.944C33.5687 139.336 40.6435 152.564 51.0551 162.954C61.4668 173.344 74.7462 180.428 89.2114 183.308C103.677 186.188 118.676 184.734 132.309 179.132C145.942 173.529 157.596 164.029 165.793 151.836C173.991 139.643 178.363 125.306 178.356 110.64C178.357 91.0516 170.549 72.2615 156.642 58.3842C142.736 44.5072 123.865 36.6736 104.162 36.5991Z" fill="#F8A547"/>
<path d="M47.2339 169.787C47.0187 169.792 46.805 169.753 46.6046 169.675C46.4047 169.597 46.222 169.48 46.068 169.331C36.193 159.602 28.9324 147.564 24.9519 134.321C20.9713 121.078 20.3981 107.054 23.2847 93.5339C26.1714 80.0138 32.4256 67.43 41.4739 56.9365C50.5225 46.443 62.0756 38.3751 75.0746 33.4727C75.4689 33.3583 75.8921 33.3965 76.2592 33.5797C76.6263 33.7629 76.91 34.0775 77.0531 34.4602C77.1965 34.8429 77.1884 35.2652 77.0312 35.6425C76.874 36.0197 76.5786 36.3239 76.2051 36.4932C63.7083 41.199 52.601 48.9504 43.9022 59.0355C35.2038 69.1205 29.1929 81.216 26.4215 94.2121C23.6501 107.208 24.207 120.688 28.041 133.414C31.875 146.141 38.8633 157.706 48.3645 167.048C48.6687 167.351 48.8393 167.761 48.8393 168.189C48.8393 168.617 48.6687 169.028 48.3645 169.331C48.2154 169.477 48.0391 169.593 47.8447 169.671C47.6508 169.75 47.443 169.789 47.2339 169.787Z" fill="#3E3126"/>
<path d="M104.157 193.04C89.1159 193.067 74.355 188.998 61.477 181.274C61.107 181.054 60.8396 180.698 60.7336 180.283C60.6276 179.869 60.6916 179.429 60.9117 179.061C61.1388 178.691 61.5031 178.424 61.9264 178.319C62.3493 178.214 62.7969 178.279 63.1728 178.499C73.6908 184.76 85.5213 188.52 97.7416 189.488C109.962 190.456 122.242 188.605 133.625 184.079C145.007 179.553 155.185 172.474 163.363 163.395C171.541 154.316 177.499 143.482 180.773 131.737C184.047 119.993 184.548 107.655 182.237 95.6861C179.926 83.7174 174.865 72.441 167.449 62.7364C160.033 53.0317 150.463 45.1609 139.485 39.7378C128.506 34.3145 116.416 31.4856 104.157 31.4714C99.9081 31.4761 95.6666 31.8167 91.4728 32.49C91.2615 32.5251 91.0453 32.5184 90.8369 32.4703C90.6284 32.4222 90.4313 32.3335 90.2574 32.2095C90.0833 32.0855 89.9356 31.9285 89.8229 31.7476C89.7102 31.5667 89.6346 31.3654 89.6003 31.1553C89.565 30.9453 89.5717 30.7305 89.6201 30.5232C89.6685 30.3159 89.7575 30.1201 89.8822 29.9471C90.0069 29.7741 90.1649 29.6273 90.3468 29.5152C90.5288 29.4031 90.7312 29.3278 90.9429 29.2937C95.3147 28.6203 99.7321 28.2798 104.157 28.2751C125.848 28.7203 146.499 37.5991 161.681 53.0071C176.863 68.4148 185.366 89.1244 185.366 110.693C185.366 132.261 176.863 152.971 161.681 168.378C146.499 183.786 125.848 192.665 104.157 193.11V193.04Z" fill="#3E3126"/>
<path d="M83.5188 34.4914C84.6893 34.4914 85.6386 33.5479 85.6386 32.384C85.6386 31.2201 84.6893 30.2766 83.5188 30.2766C82.3479 30.2766 81.3989 31.2201 81.3989 32.384C81.3989 33.5479 82.3479 34.4914 83.5188 34.4914Z" fill="#3E3126"/>
<path d="M54.2331 176.952C55.404 176.952 56.353 176.009 56.353 174.845C56.353 173.681 55.404 172.738 54.2331 172.738C53.0623 172.738 52.1133 173.681 52.1133 174.845C52.1133 176.009 53.0623 176.952 54.2331 176.952Z" fill="#3E3126"/>
<path d="M104.162 192.829C87.7999 192.878 71.7915 188.099 58.1633 179.097C44.5352 170.096 33.9 157.277 27.6047 142.263C21.3093 127.249 19.6368 110.716 22.7988 94.7568C25.9608 78.7973 33.8152 64.1297 45.3676 52.6109C56.9197 41.0918 71.6505 33.2395 87.6943 30.0483C103.738 26.857 120.374 28.4702 135.495 34.6837C150.616 40.8972 163.543 51.4311 172.638 64.9526C181.733 78.4738 186.588 94.3739 186.588 110.64C186.589 132.395 177.912 153.263 162.461 168.669C147.01 184.076 126.046 192.764 104.162 192.829ZM104.162 36.5991C89.4096 36.5366 74.9709 40.8287 62.6747 48.9317C50.3786 57.0347 40.7788 68.5837 35.0913 82.1158C29.4038 95.6479 27.8848 110.554 30.7268 124.944C33.5687 139.336 40.6435 152.564 51.0551 162.954C61.4668 173.344 74.7462 180.428 89.2114 183.308C103.677 186.188 118.676 184.734 132.309 179.132C145.942 173.529 157.596 164.029 165.793 151.836C173.991 139.643 178.363 125.306 178.356 110.64C178.357 91.0516 170.549 72.2615 156.642 58.3842C142.736 44.5072 123.865 36.6736 104.162 36.5991Z" fill="#F8A547"/>
<path d="M47.2339 169.787C47.0187 169.792 46.805 169.753 46.6046 169.675C46.4047 169.597 46.222 169.48 46.068 169.331C36.193 159.602 28.9324 147.564 24.9519 134.321C20.9713 121.078 20.3981 107.054 23.2847 93.5339C26.1714 80.0138 32.4256 67.43 41.4739 56.9365C50.5225 46.443 62.0756 38.3751 75.0746 33.4727C75.4689 33.3583 75.8921 33.3965 76.2592 33.5797C76.6263 33.7629 76.91 34.0775 77.0531 34.4602C77.1965 34.8429 77.1884 35.2652 77.0312 35.6425C76.874 36.0197 76.5786 36.3239 76.2051 36.4932C63.7083 41.199 52.601 48.9504 43.9022 59.0355C35.2038 69.1205 29.1929 81.216 26.4215 94.2121C23.6501 107.208 24.207 120.688 28.041 133.414C31.875 146.141 38.8633 157.706 48.3645 167.048C48.6687 167.351 48.8393 167.761 48.8393 168.189C48.8393 168.617 48.6687 169.028 48.3645 169.331C48.2154 169.477 48.0391 169.593 47.8447 169.671C47.6508 169.75 47.443 169.789 47.2339 169.787Z" fill="#3E3126"/>
<path d="M104.157 193.04C89.1159 193.067 74.355 188.998 61.477 181.274C61.107 181.054 60.8396 180.698 60.7336 180.283C60.6276 179.869 60.6916 179.429 60.9117 179.061C61.1388 178.691 61.5031 178.424 61.9264 178.319C62.3493 178.214 62.7969 178.279 63.1728 178.499C73.6908 184.76 85.5213 188.52 97.7416 189.488C109.962 190.456 122.242 188.605 133.625 184.079C145.007 179.553 155.185 172.474 163.363 163.395C171.541 154.316 177.499 143.482 180.773 131.737C184.047 119.993 184.548 107.655 182.237 95.6861C179.926 83.7174 174.865 72.441 167.449 62.7364C160.033 53.0317 150.463 45.1609 139.485 39.7378C128.506 34.3145 116.416 31.4856 104.157 31.4714C99.9081 31.4761 95.6666 31.8167 91.4728 32.49C91.2615 32.5251 91.0453 32.5184 90.8369 32.4703C90.6284 32.4222 90.4313 32.3335 90.2574 32.2095C90.0833 32.0855 89.9356 31.9285 89.8229 31.7476C89.7102 31.5667 89.6346 31.3654 89.6003 31.1553C89.565 30.9453 89.5717 30.7305 89.6201 30.5232C89.6685 30.3159 89.7575 30.1201 89.8822 29.9471C90.0069 29.7741 90.1649 29.6273 90.3468 29.5152C90.5288 29.4031 90.7312 29.3278 90.9429 29.2937C95.3147 28.6203 99.7321 28.2798 104.157 28.2751C125.848 28.7203 146.499 37.5991 161.681 53.0071C176.863 68.4148 185.366 89.1244 185.366 110.693C185.366 132.261 176.863 152.971 161.681 168.378C146.499 183.786 125.848 192.665 104.157 193.11V193.04Z" fill="#3E3126"/>
<path d="M83.5188 34.4914C84.6893 34.4914 85.6386 33.5479 85.6386 32.384C85.6386 31.2201 84.6893 30.2766 83.5188 30.2766C82.3479 30.2766 81.3989 31.2201 81.3989 32.384C81.3989 33.5479 82.3479 34.4914 83.5188 34.4914Z" fill="#3E3126"/>
<path d="M54.2331 176.952C55.404 176.952 56.353 176.009 56.353 174.845C56.353 173.681 55.404 172.738 54.2331 172.738C53.0623 172.738 52.1133 173.681 52.1133 174.845C52.1133 176.009 53.0623 176.952 54.2331 176.952Z" fill="#3E3126"/>
<path d="M6.85325 82.4714C8.024 82.4714 8.9731 81.5276 8.9731 80.364C8.9731 79.2 8.024 78.2566 6.85325 78.2566C5.68249 78.2566 4.7334 79.2 4.7334 80.364C4.7334 81.5276 5.68249 82.4714 6.85325 82.4714Z" fill="#3E3126"/>
<path d="M57.2232 38.8521C58.9357 37.4107 59.6087 35.4023 58.7261 34.3658C57.8436 33.3295 55.7396 33.6578 54.0271 35.0992C52.3143 36.5407 51.6416 38.549 52.5238 39.5855C53.4064 40.622 55.5103 40.2936 57.2232 38.8521Z" fill="white"/>
<path d="M30.1387 63.9952C29.7658 64.003 29.3984 63.9053 29.0788 63.7143C28.6212 63.4248 28.2951 62.9693 28.1697 62.4449C28.0444 61.9201 28.1297 61.3676 28.4075 60.9044C33.4953 53.3581 39.7148 46.6301 46.8502 40.9542C47.0537 40.7508 47.2982 40.5924 47.5677 40.4895C47.8373 40.3866 48.1253 40.3413 48.4136 40.3567C48.7019 40.3722 48.9834 40.448 49.2403 40.5794C49.4968 40.7104 49.7229 40.8941 49.9031 41.1182C50.0837 41.3423 50.214 41.6018 50.2868 41.8797C50.3592 42.1575 50.3716 42.4473 50.3235 42.73C50.2755 43.0131 50.1677 43.2829 50.0077 43.5213C49.8476 43.7602 49.6385 43.9625 49.394 44.1153C42.5847 49.5025 36.6505 55.8996 31.7993 63.082C31.6193 63.3581 31.3736 63.5861 31.084 63.7452C30.7944 63.9046 30.4697 63.9903 30.1387 63.9952Z" fill="white"/>
<path opacity="0.4" d="M134.251 155.703C135.246 155.703 136.053 154.902 136.053 153.912C136.053 152.923 135.246 152.121 134.251 152.121C133.256 152.121 132.449 152.923 132.449 153.912C132.449 154.902 133.256 155.703 134.251 155.703Z" fill="#F8A547"/>
<path d="M135.349 181.343C138.803 181.343 141.603 178.559 141.603 175.126C141.603 171.692 138.803 168.909 135.349 168.909C131.895 168.909 129.096 171.692 129.096 175.126C129.096 178.559 131.895 181.343 135.349 181.343Z" fill="#F8A547"/>
<path d="M139.516 163.957C140.667 163.957 141.6 163.029 141.6 161.885C141.6 160.74 140.667 159.812 139.516 159.812C138.365 159.812 137.431 160.74 137.431 161.885C137.431 163.029 138.365 163.957 139.516 163.957Z" fill="#F8A547"/>
<path d="M120.871 179.973C122.022 179.973 122.955 179.045 122.955 177.901C122.955 176.756 122.022 175.829 120.871 175.829C119.719 175.829 118.786 176.756 118.786 177.901C118.786 179.045 119.719 179.973 120.871 179.973Z" fill="#F8A547"/>
<path d="M150.899 171.087C152.324 171.087 153.479 169.939 153.479 168.523C153.479 167.107 152.324 165.959 150.899 165.959C149.475 165.959 148.32 167.107 148.32 168.523C148.32 169.939 149.475 171.087 150.899 171.087Z" fill="#F8A547"/>
<path opacity="0.4" d="M122.562 171.895C123.557 171.895 124.364 171.093 124.364 170.104C124.364 169.114 123.557 168.312 122.562 168.312C121.566 168.312 120.76 169.114 120.76 170.104C120.76 171.093 121.566 171.895 122.562 171.895Z" fill="#F8A547"/>
<path opacity="0.4" d="M128 166.732C129.035 166.732 129.873 165.899 129.873 164.87C129.873 163.842 129.035 163.009 128 163.009C126.966 163.009 126.128 163.842 126.128 164.87C126.128 165.899 126.966 166.732 128 166.732Z" fill="#F8A547"/>
<path opacity="0.4" d="M127.828 157.846C128.218 157.846 128.535 157.531 128.535 157.143C128.535 156.755 128.218 156.441 127.828 156.441C127.438 156.441 127.122 156.755 127.122 157.143C127.122 157.531 127.438 157.846 127.828 157.846Z" fill="#F8A547"/>
<path d="M130.335 204.595C132.384 204.595 134.044 202.944 134.044 200.907C134.044 198.871 132.384 197.219 130.335 197.219C128.286 197.219 126.625 198.871 126.625 200.907C126.625 202.944 128.286 204.595 130.335 204.595Z" fill="#F8A547"/>
<path d="M132.885 195.814C133.568 195.814 134.122 195.264 134.122 194.585C134.122 193.906 133.568 193.356 132.885 193.356C132.203 193.356 131.649 193.906 131.649 194.585C131.649 195.264 132.203 195.814 132.885 195.814Z" fill="#F8A547"/>
<path d="M121.789 205.333C122.472 205.333 123.026 204.783 123.026 204.104C123.026 203.425 122.472 202.874 121.789 202.874C121.106 202.874 120.553 203.425 120.553 204.104C120.553 204.783 121.106 205.333 121.789 205.333Z" fill="#F8A547"/>
<path d="M139.669 200.029C140.507 200.029 141.188 199.353 141.188 198.519C141.188 197.685 140.507 197.009 139.669 197.009C138.83 197.009 138.149 197.685 138.149 198.519C138.149 199.353 138.83 200.029 139.669 200.029Z" fill="#F8A547"/>
<path opacity="0.4" d="M122.772 200.521C123.357 200.521 123.832 200.049 123.832 199.467C123.832 198.885 123.357 198.413 122.772 198.413C122.186 198.413 121.712 198.885 121.712 199.467C121.712 200.049 122.186 200.521 122.772 200.521Z" fill="#F8A547"/>
<path opacity="0.4" d="M126.03 197.464C126.655 197.464 127.161 196.961 127.161 196.341C127.161 195.72 126.655 195.217 126.03 195.217C125.406 195.217 124.9 195.72 124.9 196.341C124.9 196.961 125.406 197.464 126.03 197.464Z" fill="#F8A547"/>
<path opacity="0.4" d="M125.917 192.196C126.151 192.196 126.341 192.008 126.341 191.775C126.341 191.542 126.151 191.353 125.917 191.353C125.683 191.353 125.493 191.542 125.493 191.775C125.493 192.008 125.683 192.196 125.917 192.196Z" fill="#F8A547"/>
<path d="M108.013 186.892C109.281 186.892 110.309 185.87 110.309 184.609C110.309 183.348 109.281 182.326 108.013 182.326C106.744 182.326 105.716 183.348 105.716 184.609C105.716 185.87 106.744 186.892 108.013 186.892Z" fill="#F8A547"/>
<path d="M69.6605 66.6058C73.3416 61.3407 73.4207 55.0645 69.8368 52.5879C66.2525 50.111 60.3625 52.3716 56.6813 57.6366C52.9999 62.9016 52.9207 69.1775 56.505 71.6544C60.089 74.131 65.979 71.8708 69.6605 66.6058Z" fill="#FFEFAE"/>
<path d="M128.961 119.28C127.84 116.805 126.257 114.564 124.297 112.677C122.375 110.873 120.226 109.326 117.902 108.075C115.691 106.961 113.4 106.01 111.048 105.23C107.939 104.036 105.006 102.842 102.286 101.718C99.8283 100.714 97.5678 99.2871 95.6084 97.5031C94.7498 96.6928 94.0757 95.7097 93.6309 94.6191C93.1861 93.5289 92.9808 92.3565 93.0292 91.1809C92.9787 89.4686 93.3808 87.7732 94.1951 86.2636C95.012 84.8688 96.2471 83.7635 97.7282 83.1024C99.7597 82.2953 101.936 81.9128 104.123 81.9785C106.429 81.9202 108.705 82.5039 110.695 83.6644C112.572 84.7965 114.215 86.2748 115.535 88.0198C116.881 89.8939 118.064 91.8798 119.068 93.9556L129.738 87.6685C128.372 84.8 126.586 82.1488 124.438 79.8008C122.05 77.2192 119.183 75.1203 115.994 73.6191C113.949 72.6254 111.772 71.9275 109.529 71.5468V59.113H98.9295L99.1768 71.4414C96.4372 71.8179 93.7697 72.5994 91.2627 73.7596C87.7967 75.3198 84.7918 77.7387 82.536 80.7843C80.4451 83.6398 79.3304 87.0869 79.3562 90.6189C79.2573 93.8829 79.948 97.1231 81.37 100.067C82.642 102.56 84.3809 104.79 86.493 106.635C88.4906 108.401 90.7119 109.901 93.0999 111.096C95.1766 112.121 97.3117 113.024 99.4948 113.8C102.463 114.924 105.254 116.083 107.903 117.313C110.324 118.421 112.507 119.984 114.334 121.914C116.045 123.849 116.943 126.364 116.842 128.939C116.897 130.922 116.461 132.888 115.57 134.664C114.695 136.225 113.33 137.459 111.684 138.176C109.59 139.074 107.32 139.494 105.042 139.406C102.238 139.461 99.4668 138.808 96.9863 137.509C94.5131 136.148 92.3389 134.309 90.5914 132.1C88.4871 129.432 86.6969 126.532 85.2564 123.459L75.2578 130.168C76.8664 134.056 79.164 137.624 82.0413 140.705C84.9084 143.778 88.3376 146.282 92.1459 148.081C94.3986 149.11 96.7729 149.853 99.2121 150.294L98.9295 162.201H109.529L109.317 150.61C112.577 150.339 115.766 149.52 118.75 148.186C122.422 146.507 125.508 143.781 127.618 140.354C129.746 136.774 130.823 132.674 130.727 128.517C130.815 125.347 130.212 122.196 128.961 119.28Z" fill="white"/>
<path d="M163.969 89.3197C188.497 89.3197 208.38 69.49 208.38 45.0289C208.38 20.5677 188.497 0.738037 163.969 0.738037C139.442 0.738037 119.559 20.5677 119.559 45.0289C119.559 69.49 139.442 89.3197 163.969 89.3197Z" fill="#FBD947"/>
<path d="M163.369 0.772705C163.086 16.6837 158.317 51.8424 122.42 60.6935C120.526 55.6856 119.556 50.3788 119.559 45.0284C119.603 43.0506 119.792 41.0784 120.124 39.1276C121.314 30.0851 125.292 21.6307 131.511 14.9264C137.73 8.22207 145.884 3.59675 154.854 1.68592C157.654 1.09515 160.507 0.789168 163.369 0.772705Z" fill="#FBE481"/>
<path opacity="0.5" d="M207.607 44.5014C207.617 50.3087 206.475 56.0606 204.248 61.4292C202.022 66.7979 198.753 71.6779 194.629 75.7906C190.505 79.9035 185.607 83.1686 180.213 85.3993C174.82 87.63 169.038 88.7831 163.196 88.7923C157.784 88.8056 152.417 87.8172 147.368 85.877C184.466 72.2491 193.016 40.2163 191.143 10.0803C196.29 14.2392 200.439 19.4872 203.287 25.4418C206.135 31.3965 207.611 37.908 207.607 44.5014Z" fill="#F8A547"/>
<path d="M143.517 13.6783C144.261 13.0516 144.559 12.1835 144.18 11.7394C143.802 11.2952 142.892 11.4432 142.147 12.0698C141.402 12.6965 141.105 13.5646 141.484 14.0088C141.862 14.4529 142.772 14.305 143.517 13.6783Z" fill="white"/>
<path d="M136.021 36.6686C135.915 36.6155 135.831 36.526 135.785 36.416C135.74 36.3064 135.736 36.1842 135.774 36.0715L138.282 30.1357C138.306 30.0804 138.34 30.0301 138.382 29.9878C138.425 29.9455 138.476 29.912 138.532 29.8891C138.587 29.8663 138.647 29.8546 138.707 29.8547C138.768 29.8549 138.828 29.8668 138.883 29.8899C138.99 29.943 139.074 30.0326 139.119 30.1424C139.165 30.2521 139.169 30.3745 139.13 30.487L136.587 36.4227C136.572 36.4803 136.545 36.5341 136.507 36.5794C136.468 36.6247 136.42 36.6608 136.365 36.6844C136.31 36.7083 136.251 36.7192 136.191 36.7163C136.132 36.7139 136.074 36.6974 136.021 36.6686Z" fill="#3E3126"/>
<path d="M139.381 33.8246H139.204C139.145 33.806 139.091 33.7747 139.045 33.7331C139 33.6914 138.964 33.6403 138.94 33.5834C138.917 33.5265 138.906 33.4651 138.909 33.4037C138.911 33.3422 138.928 33.2821 138.957 33.2275L140.299 30.0664C140.346 29.9546 140.436 29.8659 140.548 29.8198C140.661 29.7737 140.788 29.774 140.9 29.8205C141.012 29.8671 141.102 29.9562 141.148 30.0682C141.194 30.1801 141.194 30.3058 141.147 30.4176L139.805 33.5788C139.762 33.6529 139.7 33.7145 139.625 33.7576C139.551 33.8008 139.467 33.8238 139.381 33.8246Z" fill="#3E3126"/>
<path d="M163.966 89.4248C155.126 89.4596 146.474 86.8853 139.107 82.0281C131.74 77.1709 125.988 70.2494 122.581 62.1401C119.174 54.0311 118.264 45.0988 119.968 36.4753C121.671 27.8518 125.91 19.9247 132.148 13.6982C138.387 7.47173 146.344 3.22591 155.012 1.49859C163.679 -0.228732 172.667 0.640146 180.838 3.99516C189.008 7.3502 195.994 13.0404 200.908 20.3451C205.823 27.6498 208.447 36.2403 208.447 45.0286C208.447 56.7728 203.766 68.0384 195.43 76.3595C187.093 84.6803 175.779 89.3784 163.966 89.4248ZM163.966 4.17973C155.833 4.15192 147.875 6.52399 141.099 10.9956C134.323 15.4672 129.035 21.8371 125.903 29.2987C122.771 36.7605 121.937 44.978 123.507 52.9113C125.076 60.8444 128.979 68.136 134.719 73.8629C140.46 79.5898 147.781 83.4942 155.756 85.0817C163.73 86.6693 171.999 85.8685 179.516 82.7812C187.032 79.6934 193.458 74.4579 197.979 67.7374C202.5 61.0168 204.914 53.1137 204.914 45.0286C204.923 34.2162 200.617 23.842 192.94 16.1834C185.262 8.52477 174.842 4.20762 163.966 4.17973Z" fill="#F8A547"/>
<path d="M119.559 45.9066C119.325 45.9066 119.101 45.8143 118.935 45.6495C118.769 45.4848 118.676 45.2614 118.676 45.0286C118.663 41.9728 118.971 38.9241 119.595 35.9315C119.611 35.8167 119.652 35.7064 119.713 35.6074C119.775 35.5087 119.856 35.4237 119.952 35.3576C120.049 35.2919 120.158 35.2463 120.272 35.2242C120.387 35.202 120.505 35.2038 120.619 35.2291C120.736 35.2501 120.848 35.294 120.948 35.359C121.047 35.4237 121.132 35.5079 121.198 35.6063C121.264 35.7046 121.31 35.8153 121.332 35.9315C121.354 36.0478 121.351 36.1672 121.326 36.2828C120.73 39.1601 120.434 42.0908 120.443 45.0286C120.443 45.2614 120.349 45.4848 120.184 45.6495C120.018 45.8143 119.794 45.9066 119.559 45.9066Z" fill="#3E3126"/>
<path d="M163.976 90.1975C153.248 90.213 142.864 86.4337 134.682 79.535C126.5 72.6368 121.054 63.0694 119.318 52.545C119.283 52.4256 119.274 52.3005 119.292 52.1776C119.31 52.055 119.354 51.937 119.42 51.8323C119.487 51.7273 119.575 51.6378 119.679 51.5693C119.784 51.5011 119.901 51.4551 120.024 51.4355C120.147 51.4154 120.274 51.4214 120.394 51.4534C120.515 51.4853 120.627 51.5426 120.724 51.6206C120.821 51.6989 120.9 51.7969 120.956 51.9075C121.012 52.0185 121.044 52.14 121.049 52.264C122.86 62.577 128.357 71.8928 136.527 78.4982C144.697 85.1035 154.992 88.5541 165.517 88.2148C176.043 87.8758 186.091 83.7699 193.814 76.6524C201.537 69.535 206.415 59.8848 207.551 49.4766C208.687 39.0684 206.004 28.6027 199.997 20.0042C193.989 11.4057 185.061 5.25277 174.854 2.67722C164.646 0.101672 153.847 1.27671 144.442 5.98619C135.037 10.6957 127.658 18.6229 123.664 28.3097C123.57 28.5247 123.396 28.6957 123.18 28.7872C122.962 28.8787 122.718 28.8838 122.498 28.8014C122.281 28.7082 122.109 28.5359 122.017 28.3201C121.925 28.1044 121.92 27.8617 122.003 27.6423C125.177 20.1261 130.341 13.6057 136.945 8.7744C143.549 3.94319 151.348 0.981836 159.51 0.205339C167.673 -0.571161 175.894 0.866224 183.3 4.3646C190.707 7.86302 197.021 13.2916 201.571 20.073C206.121 26.8544 208.737 34.735 209.141 42.8769C209.545 51.0185 207.722 59.117 203.865 66.3106C200.008 73.5043 194.263 79.5245 187.239 83.7305C180.215 87.9366 172.176 90.1715 163.976 90.1975Z" fill="#3E3126"/>
<path d="M119.456 49.5938C119.964 49.5938 120.375 49.1849 120.375 48.6805C120.375 48.1762 119.964 47.7673 119.456 47.7673C118.949 47.7673 118.538 48.1762 118.538 48.6805C118.538 49.1849 118.949 49.5938 119.456 49.5938Z" fill="#3E3126"/>
<path d="M163.977 80.8548C156.836 80.8755 149.85 78.7892 143.904 74.8599C137.957 70.9307 133.317 65.3351 130.571 58.7821C127.826 52.2291 127.099 45.0137 128.481 38.0493C129.864 31.085 133.294 24.6854 138.339 19.661C143.383 14.6366 149.814 11.2134 156.816 9.82511C163.819 8.43678 171.078 9.14579 177.675 11.8623C184.273 14.5788 189.91 19.1806 193.874 25.0849C197.839 30.9891 199.951 37.9299 199.944 45.0288C199.944 54.5181 196.157 63.62 189.414 70.3367C182.671 77.0534 173.522 80.8362 163.977 80.8548ZM163.977 12.715C157.544 12.6942 151.249 14.5716 145.89 18.1096C140.531 21.6475 136.348 26.6869 133.871 32.5896C131.395 38.4923 130.736 44.9929 131.978 51.2681C133.221 57.5433 136.308 63.3109 140.85 67.8405C145.391 72.37 151.182 75.4581 157.491 76.7138C163.799 77.9691 170.34 77.3354 176.285 74.8926C182.231 72.4501 187.314 68.3083 190.89 62.992C194.466 57.6761 196.376 51.4244 196.376 45.0288C196.385 36.4741 192.978 28.2654 186.903 22.2065C180.828 16.1475 172.582 12.7337 163.977 12.715Z" fill="#F8A547"/>
<path d="M139.127 70.8442C138.941 70.8417 138.763 70.7659 138.633 70.6334C135.244 67.2795 132.562 63.2877 130.742 58.8913C128.922 54.4949 128.001 49.7823 128.034 45.0283C128.05 37.7216 130.294 30.5915 134.47 24.5782C138.645 18.5649 144.556 13.951 151.423 11.345C151.511 11.3115 151.604 11.2958 151.699 11.299C151.793 11.3021 151.886 11.3239 151.971 11.3632C152.057 11.4025 152.134 11.4584 152.197 11.5277C152.261 11.5969 152.31 11.6781 152.341 11.7665C152.4 11.9438 152.389 12.1366 152.31 12.306C152.231 12.4755 152.091 12.609 151.917 12.6797C146.468 14.7326 141.625 18.1129 137.831 22.5105C134.038 26.9082 131.417 32.1823 130.207 37.8491C128.997 43.5159 129.238 49.3942 130.908 54.9444C132.578 60.4943 135.623 65.5391 139.763 69.6149C139.895 69.7522 139.969 69.9345 139.969 70.1242C139.969 70.3138 139.895 70.4965 139.763 70.6334C139.683 70.7184 139.583 70.782 139.472 70.8186C139.361 70.8554 139.243 70.8642 139.127 70.8442Z" fill="#3E3126"/>
<path d="M163.967 80.9948C157.403 80.9931 150.965 79.2077 145.348 75.8317C145.266 75.7881 145.195 75.7281 145.137 75.6561C145.081 75.5837 145.039 75.5001 145.016 75.4112C144.993 75.322 144.988 75.2293 145.002 75.1383C145.017 75.0474 145.05 74.9606 145.101 74.8833C145.148 74.8011 145.211 74.7291 145.287 74.6722C145.363 74.615 145.45 74.5735 145.542 74.5507C145.635 74.5275 145.731 74.5237 145.825 74.5384C145.919 74.5532 146.009 74.5869 146.09 74.6375C150.681 77.3378 155.836 78.9506 161.156 79.3503C166.475 79.7504 171.816 78.9268 176.763 76.9433C181.711 74.9596 186.132 71.8697 189.685 67.9134C193.237 63.9567 195.825 59.2396 197.248 54.1284C198.67 49.0169 198.889 43.6486 197.887 38.4394C196.885 33.2304 194.69 28.3207 191.472 24.0913C188.253 19.8619 184.097 16.4265 179.328 14.0515C174.558 11.6764 169.302 10.4257 163.967 10.3963C162.11 10.3942 160.255 10.5351 158.42 10.8178C158.256 10.863 158.081 10.8446 157.93 10.7664C157.779 10.6881 157.664 10.5559 157.608 10.3963C157.593 10.3039 157.596 10.2095 157.618 10.1186C157.641 10.0276 157.681 9.94201 157.737 9.86677C157.793 9.7915 157.864 9.72811 157.944 9.68034C158.025 9.63253 158.115 9.60131 158.208 9.58849C160.112 9.27673 162.038 9.12398 163.967 9.13188C173.562 9.13188 182.765 12.9212 189.549 19.6662C196.334 26.4113 200.146 35.5597 200.146 45.0985C200.146 54.6374 196.334 63.7857 189.549 70.5305C182.765 77.2756 173.562 81.0651 163.967 81.0651V80.9948Z" fill="#3E3126"/>
<path d="M154.966 11.7661C155.474 11.7661 155.885 11.3573 155.885 10.8529C155.885 10.3486 155.474 9.9397 154.966 9.9397C154.459 9.9397 154.048 10.3486 154.048 10.8529C154.048 11.3573 154.459 11.7661 154.966 11.7661Z" fill="#3E3126"/>
<path d="M142.173 73.9351C142.68 73.9351 143.092 73.5262 143.092 73.0218C143.092 72.5175 142.68 72.1086 142.173 72.1086C141.666 72.1086 141.254 72.5175 141.254 73.0218C141.254 73.5262 141.666 73.9351 142.173 73.9351Z" fill="#3E3126"/>
<path d="M163.977 80.8548C156.836 80.8755 149.85 78.7892 143.904 74.8599C137.957 70.9307 133.317 65.3351 130.571 58.7821C127.826 52.2291 127.099 45.0137 128.481 38.0493C129.864 31.085 133.294 24.6854 138.339 19.661C143.383 14.6366 149.814 11.2134 156.816 9.82511C163.819 8.43678 171.078 9.14579 177.675 11.8623C184.273 14.5788 189.91 19.1806 193.874 25.0849C197.839 30.9891 199.951 37.9299 199.944 45.0288C199.944 54.5181 196.157 63.62 189.414 70.3367C182.671 77.0534 173.522 80.8362 163.977 80.8548ZM163.977 12.715C157.544 12.6942 151.249 14.5716 145.89 18.1096C140.531 21.6475 136.348 26.6869 133.871 32.5896C131.395 38.4923 130.736 44.9929 131.978 51.2681C133.221 57.5433 136.308 63.3109 140.85 67.8405C145.391 72.37 151.182 75.4581 157.491 76.7138C163.799 77.9691 170.34 77.3354 176.285 74.8926C182.231 72.4501 187.314 68.3083 190.89 62.992C194.466 57.6761 196.376 51.4244 196.376 45.0288C196.385 36.4741 192.978 28.2654 186.903 22.2065C180.828 16.1475 172.582 12.7337 163.977 12.715Z" fill="#F8A547"/>
<path d="M139.127 70.8442C138.941 70.8417 138.763 70.7659 138.633 70.6334C135.244 67.2795 132.562 63.2877 130.742 58.8913C128.922 54.4949 128.001 49.7823 128.034 45.0283C128.05 37.7216 130.294 30.5915 134.47 24.5782C138.645 18.5649 144.556 13.951 151.423 11.345C151.511 11.3115 151.604 11.2958 151.699 11.299C151.793 11.3021 151.886 11.3239 151.971 11.3632C152.057 11.4025 152.134 11.4584 152.197 11.5277C152.261 11.5969 152.31 11.6781 152.341 11.7665C152.4 11.9438 152.389 12.1366 152.31 12.306C152.231 12.4755 152.091 12.609 151.917 12.6797C146.468 14.7326 141.625 18.1129 137.831 22.5105C134.038 26.9082 131.417 32.1823 130.207 37.8491C128.997 43.5159 129.238 49.3942 130.908 54.9444C132.578 60.4943 135.623 65.5391 139.763 69.6149C139.895 69.7522 139.969 69.9345 139.969 70.1242C139.969 70.3138 139.895 70.4965 139.763 70.6334C139.683 70.7184 139.583 70.782 139.472 70.8186C139.361 70.8554 139.243 70.8642 139.127 70.8442Z" fill="#3E3126"/>
<path d="M163.967 80.9948C157.403 80.9931 150.965 79.2077 145.348 75.8317C145.266 75.7881 145.195 75.7281 145.137 75.6561C145.081 75.5837 145.039 75.5001 145.016 75.4112C144.993 75.322 144.988 75.2293 145.002 75.1383C145.017 75.0474 145.05 74.9606 145.101 74.8833C145.148 74.8011 145.211 74.7291 145.287 74.6722C145.363 74.615 145.45 74.5735 145.542 74.5507C145.635 74.5275 145.731 74.5237 145.825 74.5384C145.919 74.5532 146.009 74.5869 146.09 74.6375C150.681 77.3378 155.836 78.9506 161.156 79.3503C166.475 79.7504 171.816 78.9268 176.763 76.9433C181.711 74.9596 186.132 71.8697 189.685 67.9134C193.237 63.9567 195.825 59.2396 197.248 54.1284C198.67 49.0169 198.889 43.6486 197.887 38.4394C196.885 33.2304 194.69 28.3207 191.472 24.0913C188.253 19.8619 184.097 16.4265 179.328 14.0515C174.558 11.6764 169.302 10.4257 163.967 10.3963C162.11 10.3942 160.255 10.5351 158.42 10.8178C158.256 10.863 158.081 10.8446 157.93 10.7664C157.779 10.6881 157.664 10.5559 157.608 10.3963C157.593 10.3039 157.596 10.2095 157.618 10.1186C157.641 10.0276 157.681 9.94201 157.737 9.86677C157.793 9.7915 157.864 9.72811 157.944 9.68034C158.025 9.63253 158.115 9.60131 158.208 9.58849C160.112 9.27673 162.038 9.12398 163.967 9.13188C173.562 9.13188 182.765 12.9212 189.549 19.6662C196.334 26.4113 200.146 35.5597 200.146 45.0985C200.146 54.6374 196.334 63.7857 189.549 70.5305C182.765 77.2756 173.562 81.0651 163.967 81.0651V80.9948Z" fill="#3E3126"/>
<path d="M154.966 11.7661C155.474 11.7661 155.885 11.3573 155.885 10.8529C155.885 10.3486 155.474 9.9397 154.966 9.9397C154.459 9.9397 154.048 10.3486 154.048 10.8529C154.048 11.3573 154.459 11.7661 154.966 11.7661Z" fill="#3E3126"/>
<path d="M142.173 73.9351C142.68 73.9351 143.092 73.5262 143.092 73.0218C143.092 72.5175 142.68 72.1086 142.173 72.1086C141.666 72.1086 141.254 72.5175 141.254 73.0218C141.254 73.5262 141.666 73.9351 142.173 73.9351Z" fill="#3E3126"/>
<path d="M121.54 32.7002C122.048 32.7002 122.459 32.2913 122.459 31.787C122.459 31.2826 122.048 30.8738 121.54 30.8738C121.033 30.8738 120.622 31.2826 120.622 31.787C120.622 32.2913 121.033 32.7002 121.54 32.7002Z" fill="#3E3126"/>
<path d="M131.678 24.6572C131.526 24.6895 131.37 24.6895 131.218 24.6572C131.117 24.5963 131.029 24.5157 130.96 24.4203C130.891 24.3249 130.842 24.2167 130.815 24.102C130.789 23.9874 130.786 23.8686 130.807 23.7528C130.827 23.637 130.871 23.5265 130.936 23.4279C133.131 20.0924 135.837 17.118 138.956 14.6119C139.127 14.4487 139.355 14.3577 139.592 14.3577C139.829 14.3577 140.057 14.4487 140.228 14.6119C140.389 14.776 140.48 14.9967 140.48 15.2266C140.48 15.4564 140.389 15.6771 140.228 15.8412C137.181 18.2681 134.555 21.1751 132.455 24.4465C132.348 24.5359 132.224 24.601 132.09 24.6374C131.955 24.6739 131.815 24.6806 131.678 24.6572Z" fill="white"/>
<path opacity="0.4" d="M177.114 64.6634C177.543 64.6634 177.891 64.3174 177.891 63.8906C177.891 63.4639 177.543 63.1179 177.114 63.1179C176.685 63.1179 176.337 63.4639 176.337 63.8906C176.337 64.3174 176.685 64.6634 177.114 64.6634Z" fill="#F8A547"/>
<path d="M177.567 75.8673C179.069 75.8673 180.287 74.6566 180.287 73.1628C180.287 71.669 179.069 70.4583 177.567 70.4583C176.064 70.4583 174.846 71.669 174.846 73.1628C174.846 74.6566 176.064 75.8673 177.567 75.8673Z" fill="#F8A547"/>
<path d="M179.408 68.2803C179.916 68.2803 180.327 67.8714 180.327 67.3671C180.327 66.8627 179.916 66.4539 179.408 66.4539C178.901 66.4539 178.49 66.8627 178.49 67.3671C178.49 67.8714 178.901 68.2803 179.408 68.2803Z" fill="#F8A547"/>
<path d="M171.28 75.2692C171.787 75.2692 172.199 74.8604 172.199 74.356C172.199 73.852 171.787 73.4431 171.28 73.4431C170.773 73.4431 170.361 73.852 170.361 74.356C170.361 74.8604 170.773 75.2692 171.28 75.2692Z" fill="#F8A547"/>
<path d="M184.354 71.4069C184.978 71.4069 185.484 70.9035 185.484 70.2829C185.484 69.6619 184.978 69.1589 184.354 69.1589C183.729 69.1589 183.223 69.6619 183.223 70.2829C183.223 70.9035 183.729 71.4069 184.354 71.4069Z" fill="#F8A547"/>
<path opacity="0.4" d="M171.994 71.7224C172.423 71.7224 172.771 71.3765 172.771 70.9497C172.771 70.523 172.423 70.177 171.994 70.177C171.564 70.177 171.216 70.523 171.216 70.9497C171.216 71.3765 171.564 71.7224 171.994 71.7224Z" fill="#F8A547"/>
<path opacity="0.4" d="M174.389 69.4738C174.837 69.4738 175.201 69.1121 175.201 68.666C175.201 68.2196 174.837 67.8582 174.389 67.8582C173.94 67.8582 173.576 68.2196 173.576 68.666C173.576 69.1121 173.94 69.4738 174.389 69.4738Z" fill="#F8A547"/>
<path opacity="0.4" d="M174.281 65.6461C174.456 65.6461 174.599 65.5049 174.599 65.33C174.599 65.1555 174.456 65.0139 174.281 65.0139C174.105 65.0139 173.963 65.1555 173.963 65.33C173.963 65.5049 174.105 65.6461 174.281 65.6461Z" fill="#F8A547"/>
<path d="M175.381 86.0173C176.278 86.0173 177.006 85.2937 177.006 84.4016C177.006 83.5091 176.278 82.7859 175.381 82.7859C174.483 82.7859 173.756 83.5091 173.756 84.4016C173.756 85.2937 174.483 86.0173 175.381 86.0173Z" fill="#F8A547"/>
<path d="M176.507 82.1892C176.8 82.1892 177.037 81.9532 177.037 81.6624C177.037 81.3715 176.8 81.1355 176.507 81.1355C176.215 81.1355 175.978 81.3715 175.978 81.6624C175.978 81.9532 176.215 82.1892 176.507 82.1892Z" fill="#F8A547"/>
<path d="M171.677 86.3342C171.97 86.3342 172.207 86.0982 172.207 85.8074C172.207 85.5162 171.97 85.2805 171.677 85.2805C171.385 85.2805 171.147 85.5162 171.147 85.8074C171.147 86.0982 171.385 86.3342 171.677 86.3342Z" fill="#F8A547"/>
<path d="M179.451 84.0161C179.821 84.0161 180.122 83.7172 180.122 83.3487C180.122 82.9799 179.821 82.6814 179.451 82.6814C179.08 82.6814 178.779 82.9799 178.779 83.3487C178.779 83.7172 179.08 84.0161 179.451 84.0161Z" fill="#F8A547"/>
<path opacity="0.4" d="M172.09 84.2264C172.343 84.2264 172.549 84.022 172.549 83.7698C172.549 83.5176 172.343 83.3132 172.09 83.3132C171.836 83.3132 171.63 83.5176 171.63 83.7698C171.63 84.022 171.836 84.2264 172.09 84.2264Z" fill="#F8A547"/>
<path opacity="0.4" d="M173.505 82.8914C173.778 82.8914 174 82.6712 174 82.3997C174 82.1278 173.778 81.908 173.505 81.908C173.232 81.908 173.011 82.1278 173.011 82.3997C173.011 82.6712 173.232 82.8914 173.505 82.8914Z" fill="#F8A547"/>
<path opacity="0.4" d="M173.477 80.5732C173.575 80.5732 173.654 80.4945 173.654 80.3975C173.654 80.3006 173.575 80.2219 173.477 80.2219C173.38 80.2219 173.301 80.3006 173.301 80.3975C173.301 80.4945 173.38 80.5732 173.477 80.5732Z" fill="#F8A547"/>
<path d="M165.664 78.2557C166.21 78.2557 166.653 77.8156 166.653 77.2723C166.653 76.7293 166.21 76.2888 165.664 76.2888C165.117 76.2888 164.675 76.7293 164.675 77.2723C164.675 77.8156 165.117 78.2557 165.664 78.2557Z" fill="#F8A547"/>
<path d="M149.01 25.9058C150.629 23.5992 150.67 20.8474 149.102 19.7595C147.534 18.6715 144.95 19.6595 143.331 21.966C141.712 24.2726 141.67 27.0245 143.238 28.1124C144.807 29.2003 147.39 28.2124 149.01 25.9058Z" fill="#FFEFAE"/>
<path d="M174.782 49.0324C174.307 47.9502 173.623 46.9713 172.768 46.1523C171.933 45.362 170.994 44.6887 169.977 44.1502C169.014 43.6139 168.01 43.1555 166.974 42.7804C165.631 42.2535 164.359 41.7618 163.158 41.235C162.083 40.797 161.091 40.1791 160.226 39.4085C159.859 39.0619 159.571 38.6411 159.382 38.1743C159.193 37.7079 159.107 37.2063 159.13 36.704C159.114 35.9489 159.284 35.2011 159.625 34.5262C160.003 33.9197 160.557 33.4419 161.215 33.1564C162.102 32.8067 163.052 32.6395 164.006 32.6647C165.011 32.6318 166.005 32.8878 166.868 33.4023C167.686 33.8991 168.405 34.5422 168.988 35.2991C169.598 36.1206 170.142 36.9899 170.613 37.8982L175.135 34.9828C174.55 33.7045 173.776 32.5206 172.839 31.4705C171.793 30.3351 170.533 29.416 169.129 28.7659C168.208 28.3569 167.232 28.0847 166.232 27.9581V22.5491H161.745V27.923C160.524 28.0728 159.333 28.4043 158.212 28.9064C156.688 29.6012 155.373 30.6785 154.396 32.0324C153.477 33.272 152.992 34.7776 153.018 36.3177C152.969 37.7388 153.272 39.1497 153.901 40.4271C154.451 41.5198 155.207 42.4973 156.127 43.3073C156.998 44.0814 157.973 44.7315 159.024 45.2391C159.929 45.6936 160.861 46.0922 161.815 46.4333C163.087 46.925 164.324 47.4167 165.349 47.9787C166.412 48.4581 167.372 49.1381 168.175 49.9807C168.922 50.8209 169.315 51.9157 169.27 53.0365C169.305 53.9026 169.109 54.7625 168.705 55.5303C168.335 56.232 167.738 56.7891 167.009 57.1108C166.093 57.493 165.105 57.6728 164.112 57.6377C162.886 57.6584 161.673 57.3813 160.579 56.8298C159.497 56.2268 158.548 55.4147 157.788 54.4414C156.859 53.288 156.076 52.0256 155.456 50.6832L151.04 53.5282C151.722 55.2475 152.73 56.8211 154.007 58.1645C155.256 59.5143 156.756 60.6116 158.424 61.3959C159.411 61.8536 160.457 62.1725 161.533 62.3442V67.5074H166.09V62.4496C167.52 62.3411 168.919 61.9846 170.224 61.3959C171.836 60.626 173.187 59.4051 174.111 57.8835C175.025 56.3167 175.489 54.531 175.453 52.7204C175.486 51.458 175.258 50.2027 174.782 49.0324Z" fill="white"/>
</svg>
