<svg width="49" height="33" viewBox="0 0 49 33" fill="none" xmlns="http://www.w3.org/2000/svg">
<path d="M35.3495 7.64813C35.1019 7.64813 34.8662 7.48136 34.8662 7.23771V1.0664C34.8662 0.822743 34.7324 0.624023 34.4838 0.624023H15.2758C15.0272 0.624023 14.8944 0.822743 14.8944 1.0664V7.23771C14.8944 7.48136 14.6257 7.61418 14.3761 7.61418H1.36243C1.11678 7.61418 0.914062 7.8808 0.914062 8.12146V14.9818C0.914062 15.2235 1.11678 15.6029 1.36243 15.6029H22.3189C22.5676 15.6029 22.8831 15.2235 22.8831 14.9818V13.5189C22.8831 13.2752 22.975 12.6071 23.2226 12.6071H26.539C26.7866 12.6071 26.8775 13.2752 26.8775 13.5189V14.9818C26.8775 15.2235 27.193 15.6029 27.4397 15.6029H48.3952C48.6448 15.6029 48.8465 15.2235 48.8465 14.9818V8.12146C48.8465 7.8798 48.6448 7.61418 48.3962 7.61418H35.3835L35.3495 7.64813ZM17.983 7.61418C17.7354 7.61418 17.8901 7.48136 17.8901 7.2387V3.73065C17.8901 3.48599 17.7354 3.6198 17.983 3.6198H31.7776C32.0252 3.6198 31.8704 3.48599 31.8704 3.73065V7.2387C31.8704 7.48136 32.0252 7.61418 31.7776 7.61418H17.983ZM26.9324 22.3055C26.9324 22.5471 26.7866 22.5931 26.539 22.5931H23.2226C22.975 22.5931 22.8831 22.6999 22.8831 22.4583V17.5272C22.8831 17.2856 22.5676 16.6015 22.3199 16.6015H1.36243C1.11678 16.6015 0.914062 17.2856 0.914062 17.5272V32.1356C0.915635 32.2536 0.963536 32.3662 1.04742 32.4492C1.13131 32.5321 1.24446 32.5788 1.36243 32.579H48.3962C48.5144 32.5795 48.628 32.5334 48.7124 32.4505C48.7967 32.3677 48.8449 32.2549 48.8465 32.1366V17.5272C48.8465 17.2856 48.6448 16.6015 48.3962 16.6015H27.4397C27.193 16.6015 26.8775 17.2856 26.8775 17.5272V22.4583L26.9324 22.3055Z" fill="white"/>
</svg>
