<svg version="1.2" baseProfile="tiny-ps" xmlns="http://www.w3.org/2000/svg" viewBox="0 0 500 450" width="500" height="450">
	<title>Ellipse 1328-svg</title>
	<style>
		tspan { white-space:pre }
		.s0 { fill: #d2e9e7 } 
		.s1 { fill: #212552 } 
		.s2 { fill: #92d6e9 } 
		.s3 { opacity: .3;fill: #0a1e2b;stroke: #0a1e2b;stroke-linecap:round;stroke-linejoin:round;stroke-width: 6 } 
		.s4 { fill: none;stroke: #212552;stroke-linecap:round;stroke-linejoin:round;stroke-width: 6 } 
		.s5 { fill: #cbedf9 } 
		.s6 { fill: #e8f9ff } 
		.s7 { opacity: .2;fill: #0a1e2b;stroke: #0a1e2b;stroke-linecap:round;stroke-linejoin:round;stroke-width: 6 } 
		.s8 { fill: none;stroke: #212552;stroke-linecap:round;stroke-linejoin:round;stroke-width: 10 } 
		.s9 { fill: #ffea9e } 
		.s10 { fill: #edc75d } 
		.s11 { fill: none;stroke: #212552;stroke-linecap:round;stroke-linejoin:round;stroke-width: 8 } 
		.s12 { fill: #5f9e71;stroke: #212552;stroke-linecap:round;stroke-linejoin:round;stroke-width: 6 } 
		.s13 { fill: #90c49e } 
		.s14 { fill: #ffffff } 
	</style>
	<path id="Layer" class="s0" d="m499.12 201.24c0 32.65-6.43 64.98-18.93 95.14c-12.49 30.16-30.81 57.57-53.89 80.66c-23.09 23.09-50.5 41.4-80.66 53.9c-30.17 12.49-62.5 18.93-95.14 18.93c-32.65 0-64.98-6.43-95.14-18.93c-30.16-12.5-57.57-30.81-80.66-53.9c-23.09-23.09-41.4-50.49-53.89-80.66c-12.49-30.16-18.93-62.49-18.93-95.14l497.25 0z" />
	<path id="Layer" class="s1" d="m156.01 327c0-8.69 56.41-15.73 125.99-15.73c69.58 0 125.99 7.04 125.99 15.73c0 8.69-56.41 15.73-125.99 15.73c-69.58 0-125.99-7.04-125.99-15.73z" />
	<path id="Layer" class="s2" d="m243.5 326.44c-2.35 2.35-5.52 3.66-8.83 3.66h-30.29c-2.28 0-4.14-1.86-4.14-4.14v-15.18c0-2.28 1.86-4.14 4.14-4.14h45.54c2.28 0 4.14 1.86 4.14 4.14v5.11l-10.56 10.56z" />
	<path id="Layer" class="s3" d="m254.06 310.78v5.11l-8.97 8.97h-44.85v-14.08c0-2.28 1.86-4.14 4.14-4.14h45.54c2.28 0 4.14 1.86 4.14 4.14z" />
	<path id="Layer" class="s2" d="m309.94 315.89v-5.11c0-2.28 1.86-4.14 4.14-4.14h45.54c2.28 0 4.14 1.86 4.14 4.14v15.18c0 2.28-1.86 4.14-4.14 4.14h-30.29c-3.31 0-6.49-1.31-8.83-3.66l-10.56-10.56z" />
	<path id="Layer" class="s3" d="m363.76 310.78v14.08h-44.85l-8.97-8.97v-5.11c0-2.28 1.86-4.14 4.14-4.14h45.54c2.28 0 4.14 1.86 4.14 4.14z" />
	<path id="Layer" class="s4" d="m243.5 326.44c-2.35 2.35-5.52 3.66-8.83 3.66h-30.29c-2.28 0-4.14-1.86-4.14-4.14v-15.18c0-2.28 1.86-4.14 4.14-4.14h45.54c2.28 0 4.14 1.86 4.14 4.14v5.11l-10.56 10.56z" />
	<path id="Layer" class="s4" d="m309.94 315.89v-5.11c0-2.28 1.86-4.14 4.14-4.14h45.54c2.28 0 4.14 1.86 4.14 4.14v15.18c0 2.28-1.86 4.14-4.14 4.14h-30.29c-3.31 0-6.49-1.31-8.83-3.66l-10.56-10.56z" />
	<path id="Layer" class="s5" d="m371.7 315.95h-179.4c-15.25 0-27.6-12.35-27.6-27.6v-179.4c0-15.25 12.35-27.6 27.6-27.6h179.4c15.25 0 27.6 12.35 27.6 27.6v179.4c0 15.25-12.35 27.6-27.6 27.6z" />
	<path id="Layer" class="s6" d="m399.3 108.96v15.87c0-15.25-12.35-27.6-27.6-27.6h-179.4c-15.25 0-27.6 12.35-27.6 27.6v-15.87c0-15.25 12.35-27.6 27.6-27.6h179.4c15.25 0 27.6 12.35 27.6 27.6z" />
	<path id="Layer" class="s7" d="m329.4 81.08h17.66l-11.94 25.12l-5.73-25.12z" />
	<path id="Layer" class="s2" d="m399.3 272.48v15.87c0 15.25-12.35 27.6-27.6 27.6h-179.4c-15.25 0-27.6-12.35-27.6-27.6v-15.87c0 15.25 12.35 27.6 27.6 27.6h179.4c15.25 0 27.6-12.35 27.6-27.6z" />
	<path id="Layer" class="s4" d="m371.7 315.95h-179.4c-15.25 0-27.6-12.35-27.6-27.6v-179.4c0-15.25 12.35-27.6 27.6-27.6h179.4c15.25 0 27.6 12.35 27.6 27.6v179.4c0 15.25-12.35 27.6-27.6 27.6z" />
	<path id="Layer" class="s6" d="m374.46 117.23v5.52c0-6.07-4.97-8.97-11.04-8.97h-162.84c-6.07 0-11.04 2.9-11.04 8.97v-5.52c0-6.07 4.97-11.04 11.04-11.04h162.84c6.07 0 11.04 4.9 11.04 11.04z" />
	<path id="Layer" class="s2" d="m374.46 271.1v8.97c0 6.07-4.97 11.04-11.04 11.04h-162.84c-6.07 0-11.04-4.97-11.04-11.04v-8.97c0 6.07 4.97 11.04 11.04 11.04h162.84c6.07 0 11.04-4.97 11.04-11.04z" />
	<path id="Layer" class="s4" d="m200.58 291.11c-6.07 0-11.04-4.97-11.04-11.04v-162.84c0-6.07 4.97-11.04 11.04-11.04h162.84c6.07 0 11.04 4.97 11.04 11.04v162.84c0 6.07-4.97 11.04-11.04 11.04h-162.84z" />
	<path id="Layer" class="s7" d="m354.66 264.27h-1.38c-1.52 0-2.76-1.24-2.76-2.76v-104.88c0-1.52 1.24-2.76 2.76-2.76h1.38c1.52 0 2.76 1.24 2.76 2.76v104.88c0 1.52-1.24 2.76-2.76 2.76z" />
	<path id="Layer" class="s2" d="m354.66 250.47h-1.38c-1.52 0-2.76-1.24-2.76-2.76v-104.88c0-1.52 1.24-2.76 2.76-2.76h1.38c1.52 0 2.76 1.24 2.76 2.76v104.88c0 1.52-1.24 2.76-2.76 2.76z" />
	<path id="Layer" class="s4" d="m354.66 250.47h-1.38c-1.52 0-2.76-1.24-2.76-2.76v-104.88c0-1.52 1.24-2.76 2.76-2.76h1.38c1.52 0 2.76 1.24 2.76 2.76v104.88c0 1.52-1.24 2.76-2.76 2.76z" />
	<path id="Layer" class="s7" d="m237.15 204.18c0-24.77 20.08-44.85 44.85-44.85c24.77 0 44.85 20.08 44.85 44.85c0 24.77-20.08 44.85-44.85 44.85c-24.77 0-44.85-20.08-44.85-44.85z" />
	<path id="Layer" class="s5" d="m237.15 198.65c0-24.77 20.08-44.85 44.85-44.85c24.77 0 44.85 20.08 44.85 44.85c0 24.77-20.08 44.85-44.85 44.85c-24.77 0-44.85-20.08-44.85-44.85z" />
	<path id="Layer" class="s4" d="m237.15 198.65c0-24.77 20.08-44.85 44.85-44.85c24.77 0 44.85 20.08 44.85 44.85c0 24.77-20.08 44.85-44.85 44.85c-24.77 0-44.85-20.08-44.85-44.85z" />
	<path id="Layer" class="s2" d="m244.74 198.65c0-20.58 16.68-37.26 37.26-37.26c20.58 0 37.26 16.68 37.26 37.26c0 20.58-16.68 37.26-37.26 37.26c-20.58 0-37.26-16.68-37.26-37.26z" />
	<path id="Layer" class="s8" d="m282 170.37v56.58" />
	<path id="Layer" class="s8" d="m310.29 198.65h-56.58" />
	<path id="Layer" class="s8" d="m302.01 178.64l-40.02 40.02" />
	<path id="Layer" class="s8" d="m302.01 218.67l-40.02-40.02" />
	<path id="Layer" class="s3" d="m282 231.57c-9.52 0-17.25-7.73-17.25-17.25v-17.25h34.5v17.25c0 9.52-7.73 17.25-17.25 17.25z" />
	<path id="Layer" class="s7" d="m189.54 172.78c-3.04 0-5.52-2.48-5.52-5.52v-16.56c0-3.04 2.48-5.52 5.52-5.52c3.04 0 5.52 2.48 5.52 5.52v16.56c0 3.04-2.48 5.52-5.52 5.52z" />
	<path id="Layer" class="s7" d="m189.54 262.82c-3.04 0-5.52-2.48-5.52-5.52v-16.56c0-3.04 2.48-5.52 5.52-5.52c3.04 0 5.52 2.48 5.52 5.52v16.56c0 3.04-2.48 5.52-5.52 5.52z" />
	<path id="Layer" class="s2" d="m189.54 167.26c-3.04 0-5.52-2.48-5.52-5.52v-16.56c0-3.04 2.48-5.52 5.52-5.52c3.04 0 5.52 2.48 5.52 5.52v16.56c0 3.04-2.48 5.52-5.52 5.52z" />
	<path id="Layer" class="s2" d="m189.54 257.65c-3.04 0-5.52-2.48-5.52-5.52v-16.56c0-3.04 2.48-5.52 5.52-5.52c3.04 0 5.52 2.48 5.52 5.52v16.56c0 3.04-2.48 5.52-5.52 5.52z" />
	<path id="Layer" class="s4" d="m189.54 167.26c-3.04 0-5.52-2.48-5.52-5.52v-16.56c0-3.04 2.48-5.52 5.52-5.52c3.04 0 5.52 2.48 5.52 5.52v16.56c0 3.04-2.48 5.52-5.52 5.52z" />
	<path id="Layer" class="s4" d="m189.54 257.65c-3.04 0-5.52-2.48-5.52-5.52v-16.56c0-3.04 2.48-5.52 5.52-5.52c3.04 0 5.52 2.48 5.52 5.52v16.56c0 3.04-2.48 5.52-5.52 5.52z" />
	<path id="Layer" class="s9" d="m264.75 198.65c0-9.53 7.72-17.25 17.25-17.25c9.53 0 17.25 7.72 17.25 17.25c0 9.53-7.72 17.25-17.25 17.25c-9.53 0-17.25-7.72-17.25-17.25z" />
	<path id="Layer" class="s10" d="m274.27 198.65c0-4.27 3.46-7.73 7.73-7.73c4.27 0 7.73 3.46 7.73 7.73c0 4.27-3.46 7.73-7.73 7.73c-4.27 0-7.73-3.46-7.73-7.73z" />
	<path id="Layer" class="s11" d="m266.13 198.65c0-8.76 7.11-15.87 15.87-15.87c8.76 0 15.87 7.1 15.87 15.87c0 8.77-7.11 15.87-15.87 15.87c-8.76 0-15.87-7.1-15.87-15.87z" />
	<path id="Layer" class="s12" d="m336.51 106.19h-47.26v-36.02c0-2.76 2.21-4.97 4.97-4.97h37.26c2.76 0 4.97 2.21 4.97 4.97l0.07 36.02z" />
	<path id="Layer" class="s13" d="m329.33 75.97v30.22h-32.98v-30.22c0-1.24 1.04-2.21 2.21-2.21h10.14c0 2.35 1.86 4.21 4.21 4.21c2.35 0 4.21-1.86 4.21-4.21h10.07c1.17 0 2.21 0.97 2.14 2.21z" />
	<path id="Layer" class="s14" d="m302.56 98.81c0-5.45 4.63-9.87 10.35-9.87c5.72 0 10.35 4.42 10.35 9.87c0 5.45-4.63 9.87-10.35 9.87c-5.71 0-10.35-4.42-10.35-9.87z" />
	<path id="Layer" class="s4" d="m336.51 106.19h-47.26v-36.02c0-2.76 2.21-4.97 4.97-4.97h37.26c2.76 0 4.97 2.21 4.97 4.97l0.07 36.02z" />
	<path id="Layer" class="s4" d="m418.62 93.64l-13.94-1.93" />
	<path id="Layer" class="s4" d="m385.43 71.76l-2.07-13.94" />
	<path id="Layer" class="s4" d="m399.23 76.8l10-10.01" />
</svg>