<svg width="49" height="47" viewBox="0 0 49 47" fill="none" xmlns="http://www.w3.org/2000/svg">
<path d="M45.666 42.9701C45.666 40.979 42.0331 35.4138 42.0331 35.4138C42.0331 35.4138 38.3453 40.979 38.3453 42.9701C38.3453 44.9574 39.985 46.5691 42.0062 46.5691C44.0263 46.5691 45.666 44.9574 45.666 42.9701ZM19.398 11.7891H12.0774V4.57224H14.0735V0.633789H0.758301V4.57224H2.75549V15.7265C2.75549 18.6264 5.14013 20.9761 8.08098 20.9761H19.398V22.9454H23.3934V9.82185H19.398V11.7891ZM46.6916 28.194V17.0397C46.6916 14.1408 44.3079 11.7901 41.3701 11.7901H30.051V9.82284H26.0557V22.9474H30.051V20.9771H37.3727V28.194H35.3785V32.1324H48.6908V28.194H46.6916Z" fill="white"/>
</svg>
