<svg width="209" height="325" viewBox="0 0 209 325" fill="none" xmlns="http://www.w3.org/2000/svg">
<path d="M192.471 211.717H126.621V315.973H192.471V211.717Z" fill="#B2B2B2"/>
<path d="M126.88 211.717H61.0298V315.973H126.88V211.717Z" fill="#D1D1D1"/>
<path d="M92.3797 85.2871L89.5726 141.328L76.3726 182.424H100.137L112.48 147.016L116.337 106.776L92.3797 85.2871Z" fill="#F7EBE7"/>
<path d="M91.7146 281.163L96.4932 303.379L80.4432 305.282L75.8789 283.408L91.7146 281.163Z" fill="#FCC9A7"/>
<path d="M97.4632 301.369C97.0561 300.171 95.7704 299.744 94.8918 300.514C93.1775 302.032 90.0918 303.892 85.5275 303.443C80.7918 302.972 79.0132 300.193 78.3275 298.183C77.9632 297.135 76.9561 296.601 76.0561 297.05L47.3204 311.461C45.5847 312.338 44.213 313.963 43.5273 315.994C42.8844 317.897 44.1704 319.949 45.9704 319.907L95.6204 318.538C97.5704 318.495 99.0702 316.571 98.8987 314.347L98.0845 303.443C98.063 303.272 98.0418 303.079 97.9775 302.908L97.4632 301.369Z" fill="#1F252A"/>
<path d="M91.4379 173.743H54.1736C54.1736 173.743 31.4807 172.481 30.1307 191.062C28.7807 209.642 63.4093 262.796 68.8307 291.191L99.9879 288.625L77.5521 211.417L133.352 211.738C137.488 211.759 141.602 211.16 145.502 209.813C156.366 206.05 172.952 200.662 163.909 170.813L91.4379 173.743Z" fill="#092330"/>
<path d="M120.199 281.249L127.785 307.805L111.735 309.708L104.364 283.494L120.199 281.249Z" fill="#FCC9A7"/>
<path d="M128.744 305.795C128.337 304.597 127.051 304.17 126.172 304.94C124.458 306.458 121.372 308.318 116.808 307.869C112.072 307.398 110.294 304.619 109.608 302.609C109.244 301.561 108.237 301.027 107.337 301.476L78.6009 315.887C76.8652 316.764 75.4938 318.389 74.8081 320.42C74.1652 322.323 75.4509 324.375 77.2509 324.333L127.758 322.964C129.708 322.922 131.208 320.997 131.037 318.773L129.344 307.869C129.322 307.698 129.301 307.505 129.237 307.334L128.744 305.795Z" fill="#1F252A"/>
<path d="M135.965 63.2639C136.801 64.0764 174.194 73.5912 174.194 73.5912L166.201 94.7803L125.315 91.7014L135.965 63.2639Z" fill="#F7EBE7"/>
<path d="M120.543 68.3743C120.543 68.3743 96.1786 77.2476 92.3857 85.2871C93.6929 96.6407 97.7 107.567 104.3 116.91C112.4 128.371 122.407 148.063 120.564 173.743H191C191 173.743 187.207 101.494 166.357 73.7624L120.543 68.3743Z" fill="#F7EBE7"/>
<path d="M128.532 79.8349C135.454 78.4237 139.911 71.6883 138.497 64.782L134.361 44.5764L109.311 49.6866L113.447 69.8922C114.861 76.7985 121.611 81.2458 128.532 79.8349Z" fill="#FCC9A7"/>
<path d="M136.082 51.6323C136.082 51.6323 133.447 68.0106 120.675 68.9942C109.489 69.8494 110.561 53.7063 110.561 53.7063L136.082 51.6323Z" fill="#F4BE9A"/>
<path d="M121.678 60.014L123.886 59.5009C134.964 56.9351 141.864 45.9022 139.293 34.8693L136.378 22.2755C133.807 11.2213 122.75 4.3364 111.693 6.90219L109.485 7.41535C98.4068 9.98114 91.5067 21.014 94.0782 32.0469L96.9927 44.6407C99.5641 55.695 110.621 62.5798 121.678 60.014Z" fill="#FCC9A7"/>
<path d="M132.35 40.1079C131.835 40.9845 131.342 42.3102 131.171 44.32C130.978 46.8644 129.692 49.2805 127.549 50.6917C121.399 54.7542 116.707 44.4697 107.621 46.2871C107.621 46.2871 104.064 46.8217 103.357 50.7773C102.65 54.7115 97.6995 47.8266 96.6066 43.1227C95.5138 38.4187 94.9569 66.4072 117.328 64.0338C117.328 64.0338 128.621 63.6704 136.228 52.1884C137.064 50.9269 137.557 49.4516 137.599 47.9335C137.664 45.6884 137.343 42.2888 135.2 39.8513C134.449 38.9532 132.95 39.0815 132.35 40.1079Z" fill="#1C2226"/>
<path d="M132.372 33.7574C132.372 33.7574 122.707 30.5716 124.336 16.4811C124.336 16.4811 100.336 39.1456 82.5503 22.5107C82.5503 22.5107 90.5005 20.3939 93.7791 14.963C99.7577 5.06334 116.943 -8.5781 130.701 7.20152C130.701 7.20152 147.436 4.61435 142.636 30.3364L132.372 33.7574Z" fill="#1C2226"/>
<path d="M132.372 33.7577C133.294 37.6919 137.237 40.1508 141.18 39.2528C145.144 38.3334 147.587 34.3991 146.687 30.4649C145.765 26.5307 141.822 24.0718 137.879 24.9699C133.915 25.8893 131.451 29.8235 132.372 33.7577Z" fill="#FCC9A7"/>
<path d="M120.152 79.0437L130.502 79.2361L123.259 94.2032L115.438 79.8562L120.152 79.0437Z" fill="#0C2C40"/>
<path d="M139.372 63.9269L126.043 79.4499L134.722 89.3923L150.686 67.4976C150.686 67.4976 146.593 60.9335 139.372 63.9269Z" fill="#FFF7F3"/>
<path d="M120.156 79.0433L112.484 87.6815L107.084 74.2111C107.084 74.2111 108.499 68.1601 112.913 69.3147L120.156 79.0433Z" fill="#FFF7F3"/>
<path d="M122.979 89.371C122.979 89.371 112.973 115.414 115.458 152.361L125.315 161.341L136.822 150.287L124.415 87.6819L122.979 89.371Z" fill="#0C2C40"/>
<path d="M141.688 151.207L120.259 158.241L118.845 170.792L147.259 162.325L141.688 151.207Z" fill="#FCC9A7"/>
<path d="M123.454 166.537C123.454 173.871 117.497 179.836 110.125 179.836C102.775 179.836 96.7969 173.892 96.7969 166.537C96.7969 159.203 102.754 153.238 110.125 153.238C117.475 153.238 123.454 159.182 123.454 166.537Z" fill="#FCC9A7"/>
<path d="M120.543 173.742H83.3004C83.3004 173.742 60.6075 172.481 59.2575 191.061C57.9075 209.642 95.0859 266.217 100.507 294.591L131.665 292.025L106.679 211.395L162.479 211.716C166.615 211.737 170.729 211.139 174.629 209.792C185.493 206.029 202.079 200.64 193.036 170.792L120.543 173.742Z" fill="#0C2C40"/>
<path d="M8.19011 108.037H72.5829C74.7044 108.037 76.5258 109.513 76.9758 111.587L89.1044 168.333C89.7044 171.113 87.5615 173.743 84.7115 173.743H19.2473C17.1044 173.743 15.2616 172.225 14.8544 170.129L3.79728 113.383C3.24014 110.603 5.36154 108.037 8.19011 108.037Z" fill="#B2B2B2"/>
<path d="M4.48211 108.037H68.8536C70.9751 108.037 72.7965 109.513 73.2465 111.587L85.3749 168.333C85.9749 171.113 83.8536 173.743 80.9822 173.743H15.5392C13.3964 173.743 11.5536 172.225 11.1464 170.129L0.0892706 113.383C-0.467872 110.603 1.65353 108.037 4.48211 108.037Z" fill="#D1D1D1"/>
<path d="M87.3498 168.889H131.343C132.693 168.889 133.764 169.98 133.764 171.305C133.764 172.652 132.671 173.721 131.343 173.721H86.4927L87.3498 168.889Z" fill="#B2B2B2"/>
<path d="M44.3405 139.404C44.3405 143.274 41.2119 146.396 37.3333 146.396C33.4547 146.396 30.3262 143.253 30.3262 139.404C30.3262 135.534 33.4762 132.412 37.3333 132.412C41.2119 132.412 44.3405 135.534 44.3405 139.404Z" fill="white"/>
<path d="M158.829 93.7753L182.358 131.685L126.043 151.741L133.758 168.376C133.758 168.376 181.908 162.987 205.179 145.091C207.322 143.445 208.393 140.772 208.029 138.099C206.936 129.547 202.265 108.785 182.358 79.2786C178.308 73.2704 170.251 71.4529 163.972 75.0878C157.436 78.851 155.143 87.1898 158.829 93.7753Z" fill="#F7EBE7"/>
<path d="M141.027 146.396L182.363 131.685L161.684 98.3513" stroke="#EADDD8" stroke-width="0.7599" stroke-miterlimit="10" stroke-linecap="round" stroke-linejoin="round"/>
<path d="M113.035 133.844L102.857 107.032" stroke="#EADDD8" stroke-width="0.7599" stroke-miterlimit="10" stroke-linecap="round" stroke-linejoin="round"/>
<path d="M141.688 167.243C141.688 167.243 173.317 163.287 189.259 154.178" stroke="#EADDD8" stroke-width="0.7599" stroke-miterlimit="10" stroke-linecap="round" stroke-linejoin="round"/>
</svg>
