<svg width="21" height="5" viewBox="0 0 21 5" fill="none" xmlns="http://www.w3.org/2000/svg">
<path d="M12.5115 2.14286C12.5115 3.33333 11.5359 4.28571 10.3164 4.28571C9.09689 4.28571 8.12128 3.33333 8.12128 2.14286C8.12128 0.952381 9.09689 0 10.3164 0C11.5359 0 12.5115 0.952381 12.5115 2.14286ZM18.1213 0C16.9018 0 15.9262 0.952381 15.9262 2.14286C15.9262 3.33333 16.9018 4.28571 18.1213 4.28571C19.3408 4.28571 20.3164 3.33333 20.3164 2.14286C20.3164 0.952381 19.3408 0 18.1213 0ZM2.51153 0C1.29202 0 0.316406 0.952381 0.316406 2.14286C0.316406 3.33333 1.29202 4.28571 2.51153 4.28571C3.73104 4.28571 4.70665 3.33333 4.70665 2.14286C4.70665 0.952381 3.73104 0 2.51153 0Z" fill="#7D90B2"/>
</svg>
