<svg width="21" height="20" viewBox="0 0 21 20" fill="none" xmlns="http://www.w3.org/2000/svg">
<path d="M13.7261 14.8822C12.0563 16.1799 9.95492 16.7922 7.84978 16.5942C5.74465 16.3963 3.79407 15.403 2.39522 13.8166C0.996367 12.2303 0.254425 10.1701 0.320465 8.05565C0.386504 5.94118 1.25556 3.9314 2.75068 2.43552C4.24579 0.939633 6.25455 0.0701341 8.36793 0.00406071C10.4813 -0.0620127 12.5404 0.680308 14.126 2.07987C15.7115 3.47944 16.7043 5.43102 16.9021 7.53723C17.1 9.64345 16.4881 11.7459 15.1909 13.4166L20.01 18.2201C20.418 18.6267 20.4186 19.2872 20.0114 19.6946C19.6042 20.1021 18.9437 20.1017 18.5368 19.6939L13.7365 14.8822H13.7261ZM8.63556 14.5495C9.45414 14.5495 10.2647 14.3882 11.021 14.0748C11.7772 13.7614 12.4644 13.302 13.0432 12.7229C13.622 12.1438 14.0812 11.4563 14.3944 10.6996C14.7077 9.94298 14.8689 9.13201 14.8689 8.31302C14.8689 7.49403 14.7077 6.68306 14.3944 5.92641C14.0812 5.16976 13.622 4.48225 13.0432 3.90314C12.4644 3.32402 11.7772 2.86465 11.021 2.55123C10.2647 2.23782 9.45414 2.07651 8.63556 2.07651C6.98238 2.07651 5.39691 2.73356 4.22794 3.90314C3.05896 5.07271 2.40224 6.659 2.40224 8.31302C2.40224 9.96705 3.05896 11.5533 4.22794 12.7229C5.39691 13.8925 6.98238 14.5495 8.63556 14.5495Z" fill="#6F809E"/>
</svg>
