<svg width="48" height="50" viewBox="0 0 48 50" fill="none" xmlns="http://www.w3.org/2000/svg">
<path d="M33.1434 34.4054L31.0949 31.5662V28.0619C31.8469 26.9328 32.5082 25.5373 33.1068 23.8361C33.2062 23.853 33.305 23.8618 33.4032 23.8618C33.8451 23.8618 34.2529 23.6916 34.5692 23.4046C34.7414 23.3531 34.9104 23.2903 35.0739 23.2156C36.4052 22.6102 37.4177 21.2606 37.6153 19.5914C37.7975 18.0478 37.2319 16.6096 36.2331 15.6846C36.7365 10.9419 35.8179 7.03006 33.5362 4.31018C31.3478 1.70271 27.9306 0.26709 23.8882 0.26709C19.9011 0.26709 16.4938 1.71275 14.2911 4.33718C11.9995 7.069 11.0722 10.9714 11.5682 15.6846C10.57 16.609 10.0026 18.0478 10.1853 19.592C10.3817 21.2606 11.3948 22.6108 12.7261 23.2162C12.8249 23.2608 12.9281 23.2935 13.03 23.3299C13.6491 24.7454 14.6765 25.9524 16.0121 26.8819C16.2353 27.3001 16.4646 27.7002 16.7052 28.0619V31.5662L14.656 34.4054C5.06076 36.5035 0.773438 41.1181 0.773438 49.3544V49.8254H47.0278V49.3544C47.0278 41.1181 42.7399 36.5035 33.1434 34.4054ZM21.1354 35.2946L20.6973 34.8236L20.2622 34.3558L17.6381 31.5335V29.267C19.2559 31.0594 21.266 31.862 23.9 31.862C26.5341 31.862 28.5453 31.06 30.1626 29.267V31.5335L27.5347 34.3595L27.1034 34.8236L26.6658 35.2946L23.9006 38.2676L21.1354 35.2946ZM31.9588 34.362L32.2919 34.8236L32.341 34.8914L32.1844 35.2946L29.3229 42.6366L25.1058 39.3094L24.6061 38.9151C24.5893 38.9019 25.0952 38.3574 25.0952 38.3574L27.9437 35.294L28.3812 34.823L28.812 34.3595L30.0407 33.0382L30.5827 32.4554C30.5927 32.4686 30.9842 33.0125 30.9842 33.0125L31.9588 34.362ZM12.9523 14.4631C12.7727 14.5209 12.6117 14.6113 12.4638 14.7181C12.1897 10.67 13.0605 7.33025 15.0363 4.97523C17.0501 2.575 20.1932 1.25306 23.9124 1.25306C27.6391 1.25306 30.7922 2.56496 32.791 4.94823C34.7582 7.29382 35.6221 10.6423 35.3387 14.7187C35.1908 14.6113 35.0292 14.5209 34.8495 14.4631L34.7488 14.4305C35.1814 7.10354 31.6866 1.92188 23.9006 1.92188C16.1153 1.92188 12.6198 7.10354 13.0537 14.4305L12.9523 14.4631ZM14.4129 23.8549C14.5056 23.8543 14.5988 23.853 14.6933 23.8367C14.7933 24.1206 14.8977 24.3843 15.0015 24.6518C14.7871 24.3975 14.5888 24.1325 14.4129 23.8549ZM16.6753 26.1446C16.2378 25.2805 15.8201 24.2719 15.4229 23.0881L15.2489 22.5669L14.766 22.8218C14.7051 22.8539 14.6578 22.8664 14.6094 22.8815C14.6323 22.7773 14.6429 22.6674 14.6292 22.5543L14.0506 17.6571L15.2042 19.7854V17.9441C15.2042 15.5954 15.2042 13.1669 15.881 11.3828C16.6125 9.4529 18.0477 8.5536 20.3983 8.5536C21.3698 8.5536 22.5109 8.71374 23.79 9.02962L23.9006 9.05663L24.0113 9.02962C25.2904 8.71374 26.4315 8.5536 27.403 8.5536C32.5965 8.5536 32.5965 13.116 32.5965 17.946V19.7854L33.7507 17.6584L33.172 22.5543C33.159 22.6674 33.1689 22.7766 33.1919 22.8815C33.1428 22.8671 33.0956 22.8532 33.0359 22.8218L32.553 22.5656L32.3783 23.0881C31.9725 24.2989 31.5448 25.3295 31.0955 26.2068C30.9426 26.5057 30.7872 26.7871 30.6293 27.0508C30.4764 27.3058 30.321 27.5451 30.1632 27.7699C28.3937 30.2875 26.3196 30.9206 23.9006 30.9206C21.5009 30.9206 19.4405 30.2951 17.6803 27.8258C18.7817 28.3257 20.0148 28.6748 21.3468 28.8438C21.5258 29.301 21.9646 29.6244 22.4804 29.6244H24.0249C24.6993 29.6244 25.2462 29.0717 25.2462 28.3904C25.2462 27.7083 24.6993 27.1563 24.0249 27.1563H22.4804C21.9981 27.1563 21.5848 27.4408 21.3859 27.8509C19.5754 27.6085 17.9681 27.0169 16.6753 26.1446ZM15.5081 34.8236L15.8481 34.3532L16.8158 33.0131L17.208 32.4692C17.2179 32.456 17.7599 33.0388 17.7599 33.0388L18.9831 34.3545L19.4188 34.8236L19.8569 35.2946L22.7048 38.358L23.2107 38.9019C23.1939 38.9151 22.6942 39.3094 22.6942 39.3094L18.4771 42.6366L15.6156 35.2946L15.459 34.8914L15.5081 34.8236Z" fill="white"/>
</svg>
